<?xml version="1.0" encoding="UTF-8"?>
<svg version="1.1" xmlns="http://www.w3.org/2000/svg" width="512" height="512">
<path d="M0 0 C168.96 0 337.92 0 512 0 C512 168.96 512 337.92 512 512 C343.04 512 174.08 512 0 512 C0 343.04 0 174.08 0 0 Z " fill="#000000" transform="translate(0,0)"/>
<path d="M0 0 C18.15 0 36.3 0 55 0 C55 4.62 55 9.24 55 14 C56.98 14 58.96 14 61 14 C62 15 62 15 62.1328125 18.125 C62.13023437 19.40375 62.12765625 20.6825 62.125 22 C62.12886719 23.918125 62.12886719 23.918125 62.1328125 25.875 C62 29 62 29 61 30 C60.92728259 32.35313555 60.91629132 34.70833668 60.9375 37.0625 C60.94652344 38.35285156 60.95554687 39.64320313 60.96484375 40.97265625 C60.97644531 41.97167969 60.98804688 42.97070312 61 44 C57.535 44.495 57.535 44.495 54 45 C54 49.62 54 54.24 54 59 C52.35 59 50.7 59 49 59 C49.99 59.33 50.98 59.66 52 60 C52 60.66 52 61.32 52 62 C52.66 62 53.32 62 54 62 C54 61.34 54 60.68 54 60 C58.62 60 63.24 60 68 60 C68 64.62 68 69.24 68 74 C61.73 74 55.46 74 49 74 C49.99 74.33 50.98 74.66 52 75 C52 75.66 52 76.32 52 77 C52.66 77 53.32 77 54 77 C54 76.34 54 75.68 54 75 C58.62 75 63.24 75 68 75 C68 79.62 68 84.24 68 89 C64.535 89.495 64.535 89.495 61 90 C61 94.62 61 99.24 61 104 C40.87 104 20.74 104 0 104 C0 89.48 0 74.96 0 60 C-0.66 59.67 -1.32 59.34 -2 59 C-2.625 56.9375 -2.625 56.9375 -3 55 C-3.33 56.32 -3.66 57.64 -4 59 C-4.66 59 -5.32 59 -6 59 C-7.125 52.25 -7.125 52.25 -6 50 C-6.66 50 -7.32 50 -8 50 C-7.67 48.35 -7.34 46.7 -7 45 C-5.02 45 -3.04 45 -1 45 C-1.33 43.35 -1.66 41.7 -2 40 C-2.66 41.32 -3.32 42.64 -4 44 C-4.66 44 -5.32 44 -6 44 C-6.77112541 39.27685687 -7.09764874 34.78478822 -7 30 C-5.35 30 -3.7 30 -2 30 C-2 29.01 -2 28.02 -2 27 C-2.66 27 -3.32 27 -4 27 C-4 27.66 -4 28.32 -4 29 C-4.66 29 -5.32 29 -6 29 C-6 28.34 -6 27.68 -6 27 C-6.66 27 -7.32 27 -8 27 C-7.85831863 25.56208484 -7.71148957 24.1246763 -7.5625 22.6875 C-7.48128906 21.88699219 -7.40007812 21.08648437 -7.31640625 20.26171875 C-7 18 -7 18 -6 15 C-5.195625 15.020625 -4.39125 15.04125 -3.5625 15.0625 C-1.06645115 15.29633621 -1.06645115 15.29633621 0 14 C0 9.38 0 4.76 0 0 Z " fill="#010301" transform="translate(198,190)"/>
<path d="M0 0 C18.15 0 36.3 0 55 0 C55 4.62 55 9.24 55 14 C56.98 14 58.96 14 61 14 C62 15 62 15 62.09765625 18.16015625 C62.06510417 21.7734375 62.03255208 25.38671875 62 29 C57.05 29 52.1 29 47 29 C47 29.99 47 30.98 47 32 C43.535 32.495 43.535 32.495 40 33 C40 33.66 40 34.32 40 35 C40.66 35 41.32 35 42 35 C42 35.66 42 36.32 42 37 C41.34 37 40.68 37 40 37 C40 37.66 40 38.32 40 39 C40.99 39.495 40.99 39.495 42 40 C41.34 40 40.68 40 40 40 C40 40.66 40 41.32 40 42 C40.66 42 41.32 42 42 42 C42 42.66 42 43.32 42 44 C32.76 44 23.52 44 14 44 C14 39.38 14 34.76 14 30 C9.05 30 4.1 30 -1 30 C-1.33 30.66 -1.66 31.32 -2 32 C-2 30.35 -2 28.7 -2 27 C-2.66 27 -3.32 27 -4 27 C-4 27.66 -4 28.32 -4 29 C-4.66 29 -5.32 29 -6 29 C-6 28.34 -6 27.68 -6 27 C-6.66 27 -7.32 27 -8 27 C-7.85831863 25.56208484 -7.71148957 24.1246763 -7.5625 22.6875 C-7.48128906 21.88699219 -7.40007812 21.08648437 -7.31640625 20.26171875 C-7 18 -7 18 -6 15 C-5.195625 15.020625 -4.39125 15.04125 -3.5625 15.0625 C-1.06645115 15.29633621 -1.06645115 15.29633621 0 14 C0 9.38 0 4.76 0 0 Z " fill="#010301" transform="translate(198,190)"/>
<path d="M0 0 C6.93 0 13.86 0 21 0 C21 4.62 21 9.24 21 14 C30.24 14 39.48 14 49 14 C49 13.34 49 12.68 49 12 C48.34 12 47.68 12 47 12 C47 10.35 47 8.7 47 7 C47.66 7 48.32 7 49 7 C49 6.34 49 5.68 49 5 C48.34 5 47.68 5 47 5 C47 4.34 47 3.68 47 3 C47.639375 2.87625 48.27875 2.7525 48.9375 2.625 C49.618125 2.41875 50.29875 2.2125 51 2 C51.33 1.34 51.66 0.68 52 0 C52 0.66 52 1.32 52 2 C52.66 2 53.32 2 54 2 C54 1.34 54 0.68 54 0 C58.62 0 63.24 0 68 0 C68 4.62 68 9.24 68 14 C65.69 14.33 63.38 14.66 61 15 C61 19.29 61 23.58 61 28 C43.18 28 25.36 28 7 28 C7 23.71 7 19.42 7 15 C6.34 14.67 5.68 14.34 5 14 C4.375 11.9375 4.375 11.9375 4 10 C3.67 11.32 3.34 12.64 3 14 C2.34 14 1.68 14 1 14 C0.21153068 9.1706254 0 4.96762993 0 0 Z " fill="#66F950" transform="translate(191,220)"/>
<path d="M0 0 C29.04 0 58.08 0 88 0 C88 4.62 88 9.24 88 14 C58.96 14 29.92 14 0 14 C0 9.38 0 4.76 0 0 Z " fill="#5CE448" transform="translate(89,220)"/>
<path d="M0 0 C20.13 0 40.26 0 61 0 C61 4.62 61 9.24 61 14 C40.87 14 20.74 14 0 14 C0 9.38 0 4.76 0 0 Z " fill="#63F14D" transform="translate(198,280)"/>
<path d="M0 0 C17.82 0 35.64 0 54 0 C54 4.62 54 9.24 54 14 C36.18 14 18.36 14 0 14 C0 9.38 0 4.76 0 0 Z " fill="#61EE4C" transform="translate(198,190)"/>
<path d="M0 0 C17.82 0 35.64 0 54 0 C54 4.29 54 8.58 54 13 C36.18 13 18.36 13 0 13 C0 8.71 0 4.42 0 0 Z " fill="#62F34C" transform="translate(300,220)"/>
<path d="M0 0 C15.84 0 31.68 0 48 0 C48 4.62 48 9.24 48 14 C32.16 14 16.32 14 0 14 C0 9.38 0 4.76 0 0 Z " fill="#5EE34A" transform="translate(375,280)"/>
<path d="M0 0 C15.84 0 31.68 0 48 0 C48 4.62 48 9.24 48 14 C32.16 14 16.32 14 0 14 C0 9.38 0 4.76 0 0 Z " fill="#66F74F" transform="translate(375,250)"/>
<path d="M0 0 C15.84 0 31.68 0 48 0 C48 4.62 48 9.24 48 14 C32.16 14 16.32 14 0 14 C0 9.38 0 4.76 0 0 Z " fill="#61F04B" transform="translate(375,220)"/>
<path d="M0 0 C6.93 0 13.86 0 21 0 C21 4.62 21 9.24 21 14 C30.24 14 39.48 14 49 14 C49 13.34 49 12.68 49 12 C48.34 12 47.68 12 47 12 C47 10.35 47 8.7 47 7 C47.66 7 48.32 7 49 7 C49 6.34 49 5.68 49 5 C48.34 5 47.68 5 47 5 C47 4.34 47 3.68 47 3 C47.639375 2.87625 48.27875 2.7525 48.9375 2.625 C49.618125 2.41875 50.29875 2.2125 51 2 C51.33 1.34 51.66 0.68 52 0 C52 0.66 52 1.32 52 2 C52.66 2 53.32 2 54 2 C54 1.34 54 0.68 54 0 C58.62 0 63.24 0 68 0 C68 4.62 68 9.24 68 14 C57.30530997 14.89122417 46.66347518 15.11131097 35.9375 15.125 C34.92804321 15.12874634 34.92804321 15.12874634 33.89819336 15.13256836 C24.21571234 15.16197694 14.64727813 14.76000989 5 14 C4.67 12.68 4.34 11.36 4 10 C3.67 11.32 3.34 12.64 3 14 C2.34 14 1.68 14 1 14 C0.21153068 9.1706254 0 4.96762993 0 0 Z " fill="#1D4917" transform="translate(191,220)"/>
<path d="M0 0 C1.65 0 3.3 0 5 0 C5 0.66 5 1.32 5 2 C5.66 2 6.32 2 7 2 C7 1.34 7 0.68 7 0 C11.62 0 16.24 0 21 0 C21 9.57 21 19.14 21 29 C15.72 29 10.44 29 5 29 C5 28.34 5 27.68 5 27 C4.34 27 3.68 27 3 27 C3 27.66 3 28.32 3 29 C2.34 29 1.68 29 1 29 C0.22887459 24.27685687 -0.09764874 19.78478822 0 15 C1.65 15 3.3 15 5 15 C5 14.01 5 13.02 5 12 C4.34 12 3.68 12 3 12 C3 12.66 3 13.32 3 14 C2.34 14 1.68 14 1 14 C0.22887459 9.27685687 -0.09764874 4.78478822 0 0 Z " fill="#296720" transform="translate(470,235)"/>
<path d="M0 0 C6 0 12 0 18 0 C18 9.57 18 19.14 18 29 C12.72 29 7.44 29 2 29 C2 28.34 2 27.68 2 27 C1.34 27 0.68 27 0 27 C0 27.66 0 28.32 0 29 C-0.66 29 -1.32 29 -2 29 C-2.76173392 24.6835078 -3.16063604 21.25566547 -2 17 C-1.34 17 -0.68 17 0 17 C0 16.01 0 15.02 0 14 C-0.66 14 -1.32 14 -2 14 C-2.76173392 9.6835078 -3.16063604 6.25566547 -2 2 C-1.34 2 -0.68 2 0 2 C0 1.34 0 0.68 0 0 Z M0 12 C0.33 12.66 0.66 13.32 1 14 C1.33 13.34 1.66 12.68 2 12 C1.34 12 0.68 12 0 12 Z " fill="#2E7224" transform="translate(85,250)"/>
<path d="M0 0 C8.91 0 17.82 0 27 0 C27 4.62 27 9.24 27 14 C18.42 14 9.84 14 1 14 C0.67 12.68 0.34 11.36 0 10 C-0.66 9.67 -1.32 9.34 -2 9 C-1.34 9 -0.68 9 0 9 C0 8.34 0 7.68 0 7 C-0.66 6.67 -1.32 6.34 -2 6 C-1.34 6 -0.68 6 0 6 C0 4.02 0 2.04 0 0 Z " fill="#59D545" transform="translate(327,280)"/>
<path d="M0 0 C8.91 0 17.82 0 27 0 C27 4.62 27 9.24 27 14 C18.09 14 9.18 14 0 14 C0 9.38 0 4.76 0 0 Z " fill="#59DB45" transform="translate(464,310)"/>
<path d="M0 0 C8.91 0 17.82 0 27 0 C27 4.62 27 9.24 27 14 C18.09 14 9.18 14 0 14 C0 9.38 0 4.76 0 0 Z " fill="#5CE548" transform="translate(28,310)"/>
<path d="M0 0 C8.91 0 17.82 0 27 0 C27 4.62 27 9.24 27 14 C18.09 14 9.18 14 0 14 C0 9.38 0 4.76 0 0 Z " fill="#5CE448" transform="translate(28,190)"/>
<path d="M0 0 C10.89 0 21.78 0 33 0 C33 3.63 33 7.26 33 11 C22.11 11 11.22 11 0 11 C0 7.37 0 3.74 0 0 Z " fill="#63F64D" transform="translate(137,221)"/>
<path d="M0 0 C8.58 0 17.16 0 26 0 C26 4.29 26 8.58 26 13 C17.42 13 8.84 13 0 13 C0 8.71 0 4.42 0 0 Z " fill="#62F04C" transform="translate(464,190)"/>
<path d="M0 0 C0 4.62 0 9.24 0 14 C-15.84 14 -31.68 14 -48 14 C-48 13.34 -48 12.68 -48 12 C-38.76 12 -29.52 12 -20 12 C-20 8.7 -20 5.4 -20 2 C-24.62 2 -29.24 2 -34 2 C-34 1.67 -34 1.34 -34 1 C-29.47934189 0.8571864 -24.9586712 0.71478006 -20.43798828 0.57275391 C-18.89957328 0.52436382 -17.3611618 0.47586174 -15.82275391 0.42724609 C-13.6136159 0.35745385 -11.40446562 0.28806219 -9.1953125 0.21875 C-8.16085495 0.18593933 -8.16085495 0.18593933 -7.10549927 0.15246582 C-2.22774341 0 -2.22774341 0 0 0 Z " fill="#5CDA48" transform="translate(423,220)"/>
<path d="M0 0 C1.98 0 3.96 0 6 0 C6 3.63 6 7.26 6 11 C31.08 11 56.16 11 82 11 C82 7.37 82 3.74 82 0 C83.98 0 85.96 0 88 0 C88 4.29 88 8.58 88 13 C58.96 13 29.92 13 0 13 C0 8.71 0 4.42 0 0 Z " fill="#57C744" transform="translate(89,221)"/>
<path d="M0 0 C8.25 0 16.5 0 25 0 C25 3.63 25 7.26 25 11 C16.75 11 8.5 11 0 11 C0 7.37 0 3.74 0 0 Z " fill="#64F74E" transform="translate(97,221)"/>
<path d="M0 0 C17.82 0 35.64 0 54 0 C54 0.33 54 0.66 54 1 C52.02 1 50.04 1 48 1 C48 4.63 48 8.26 48 12 C47.67 12 47.34 12 47 12 C47 8.37 47 4.74 47 1 C45.02 1 43.04 1 41 1 C41 4.63 41 8.26 41 12 C40.67 12 40.34 12 40 12 C40 8.37 40 4.74 40 1 C38.35 1 36.7 1 35 1 C35 4.63 35 8.26 35 12 C34.34 12 33.68 12 33 12 C33 8.37 33 4.74 33 1 C31.35 1 29.7 1 28 1 C28 4.63 28 8.26 28 12 C27.34 12 26.68 12 26 12 C26 8.37 26 4.74 26 1 C22.04 1 18.08 1 14 1 C14 4.63 14 8.26 14 12 C9.38 12 4.76 12 0 12 C0 8.04 0 4.08 0 0 Z " fill="#61F14C" transform="translate(198,235)"/>
<path d="M0 0 C20.13 0 40.26 0 61 0 C61 0.33 61 0.66 61 1 C54.73 1 48.46 1 42 1 C42 4.63 42 8.26 42 12 C36.39 12 30.78 12 25 12 C25 8.7 25 5.4 25 2 C16.75 1.67 8.5 1.34 0 1 C0 0.67 0 0.34 0 0 Z " fill="#5EE749" transform="translate(198,280)"/>
<path d="M0 0 C15.84 0 31.68 0 48 0 C48 4.62 48 9.24 48 14 C32.16 14 16.32 14 0 14 C0.66 13.34 1.32 12.68 2 12 C2.24287489 9.55987051 2.24287489 9.55987051 2.125 6.875 C2.063125 4.461875 2.063125 4.461875 2 2 C5.96 2 9.92 2 14 2 C14 5.63 14 9.26 14 13 C24.89 13 35.78 13 47 13 C47 9.04 47 5.08 47 1 C31.49 1 15.98 1 0 1 C0 0.67 0 0.34 0 0 Z " fill="#56D443" transform="translate(375,250)"/>
<path d="M0 0 C4.62 0 9.24 0 14 0 C14 4.62 14 9.24 14 14 C8.72 14 3.44 14 -2 14 C-1.34 13.67 -0.68 13.34 0 13 C0 12.01 0 11.02 0 10 C-0.66 9.67 -1.32 9.34 -2 9 C-1.34 9 -0.68 9 0 9 C0 8.34 0 7.68 0 7 C-0.66 6.67 -1.32 6.34 -2 6 C-1.34 6 -0.68 6 0 6 C0 5.01 0 4.02 0 3 C-0.66 2.67 -1.32 2.34 -2 2 C-1.34 2 -0.68 2 0 2 C0 1.34 0 0.68 0 0 Z " fill="#5CDC47" transform="translate(320,265)"/>
<path d="M0 0 C4.62 0 9.24 0 14 0 C14 4.62 14 9.24 14 14 C8.72 14 3.44 14 -2 14 C-1.34 13.67 -0.68 13.34 0 13 C0 12.01 0 11.02 0 10 C-0.66 9.67 -1.32 9.34 -2 9 C-1.34 9 -0.68 9 0 9 C0 8.34 0 7.68 0 7 C-0.66 6.67 -1.32 6.34 -2 6 C-1.34 6 -0.68 6 0 6 C0 4.02 0 2.04 0 0 Z " fill="#5BDB47" transform="translate(320,250)"/>
<path d="M0 0 C4.62 0 9.24 0 14 0 C14 4.62 14 9.24 14 14 C8.72 14 3.44 14 -2 14 C-1.34 13.67 -0.68 13.34 0 13 C0 12.01 0 11.02 0 10 C-0.66 9.67 -1.32 9.34 -2 9 C-1.34 9 -0.68 9 0 9 C0 8.34 0 7.68 0 7 C-0.66 6.67 -1.32 6.34 -2 6 C-1.34 6 -0.68 6 0 6 C0 4.02 0 2.04 0 0 Z " fill="#5EE449" transform="translate(252,250)"/>
<path d="M0 0 C4.62 0 9.24 0 14 0 C14 4.62 14 9.24 14 14 C9.71 14 5.42 14 1 14 C0.67 12.68 0.34 11.36 0 10 C-0.66 9.67 -1.32 9.34 -2 9 C-1.34 9 -0.68 9 0 9 C0 8.34 0 7.68 0 7 C-0.66 6.67 -1.32 6.34 -2 6 C-1.34 6 -0.68 6 0 6 C0 5.01 0 4.02 0 3 C-0.66 2.67 -1.32 2.34 -2 2 C-1.34 2 -0.68 2 0 2 C0 1.34 0 0.68 0 0 Z " fill="#5EE449" transform="translate(252,265)"/>
<path d="M0 0 C6.6 0 13.2 0 20 0 C20 3.3 20 6.6 20 10 C13.4 10 6.8 10 0 10 C0 6.7 0 3.4 0 0 Z " fill="#63F54D" transform="translate(401,282)"/>
<path d="M0 0 C4.29 0 8.58 0 13 0 C13 4.62 13 9.24 13 14 C8.71 14 4.42 14 0 14 C0 9.38 0 4.76 0 0 Z " fill="#61E44C" transform="translate(89,280)"/>
<path d="M0 0 C4.29 0 8.58 0 13 0 C13 4.62 13 9.24 13 14 C8.71 14 4.42 14 0 14 C0 9.38 0 4.76 0 0 Z " fill="#60E94B" transform="translate(130,280)"/>
<path d="M0 0 C4.29 0 8.58 0 13 0 C13 4.62 13 9.24 13 14 C8.71 14 4.42 14 0 14 C0 9.38 0 4.76 0 0 Z " fill="#63EF4D" transform="translate(171,280)"/>
<path d="M0 0 C4.29 0 8.58 0 13 0 C13 4.62 13 9.24 13 14 C8.71 14 4.42 14 0 14 C0 9.38 0 4.76 0 0 Z " fill="#63F04D" transform="translate(416,265)"/>
<path d="M0 0 C4.29 0 8.58 0 13 0 C13 4.62 13 9.24 13 14 C8.71 14 4.42 14 0 14 C0 9.38 0 4.76 0 0 Z " fill="#63F04D" transform="translate(198,265)"/>
<path d="M0 0 C4.29 0 8.58 0 13 0 C13 4.62 13 9.24 13 14 C8.71 14 4.42 14 0 14 C0 9.38 0 4.76 0 0 Z " fill="#63F54D" transform="translate(171,265)"/>
<path d="M0 0 C4.29 0 8.58 0 13 0 C13 4.62 13 9.24 13 14 C8.71 14 4.42 14 0 14 C0 9.38 0 4.76 0 0 Z " fill="#63F14D" transform="translate(198,250)"/>
<path d="M0 0 C4.29 0 8.58 0 13 0 C13 4.62 13 9.24 13 14 C8.71 14 4.42 14 0 14 C0 9.38 0 4.76 0 0 Z " fill="#5FE04A" transform="translate(280,190)"/>
<path d="M0 0 C3.96 0 7.92 0 12 0 C12 3.63 12 7.26 12 11 C16.29 11 20.58 11 25 11 C25 7.7 25 4.4 25 1 C21.37 1 17.74 1 14 1 C14 0.67 14 0.34 14 0 C17.96 0 21.92 0 26 0 C26 3.96 26 7.92 26 12 C17.42 12 8.84 12 0 12 C0 8.04 0 4.08 0 0 Z " fill="#6CFC54" transform="translate(464,311)"/>
<path d="M0 0 C4.62 0 9.24 0 14 0 C14.07972012 4.7034873 13.93491183 8.32544083 13 13 C8.71 13 4.42 13 0 13 C0 8.71 0 4.42 0 0 Z " fill="#69FA52" transform="translate(280,220)"/>
<path d="M0 0 C4.29 0 8.58 0 13 0 C13 4.29 13 8.58 13 13 C8.71 13 4.42 13 0 13 C0 12.01 0 11.02 0 10 C-0.66 9.67 -1.32 9.34 -2 9 C-1.34 9 -0.68 9 0 9 C0 6.03 0 3.06 0 0 Z " fill="#66F64F" transform="translate(368,235)"/>
<path d="M0 0 C4.29 0 8.58 0 13 0 C13 4.29 13 8.58 13 13 C8.71 13 4.42 13 0 13 C0 8.71 0 4.42 0 0 Z " fill="#65F44E" transform="translate(477,295)"/>
<path d="M0 0 C4.29 0 8.58 0 13 0 C13 4.29 13 8.58 13 13 C8.71 13 4.42 13 0 13 C0 8.71 0 4.42 0 0 Z " fill="#69FC52" transform="translate(28,295)"/>
<path d="M0 0 C4.29 0 8.58 0 13 0 C13 4.29 13 8.58 13 13 C8.71 13 4.42 13 0 13 C0 8.71 0 4.42 0 0 Z " fill="#65F84F" transform="translate(477,280)"/>
<path d="M0 0 C4.29 0 8.58 0 13 0 C13 4.29 13 8.58 13 13 C8.71 13 4.42 13 0 13 C0 8.71 0 4.42 0 0 Z " fill="#61ED4B" transform="translate(280,280)"/>
<path d="M0 0 C4.29 0 8.58 0 13 0 C13 4.29 13 8.58 13 13 C8.71 13 4.42 13 0 13 C0 8.71 0 4.42 0 0 Z " fill="#64F34E" transform="translate(28,280)"/>
<path d="M0 0 C4.29 0 8.58 0 13 0 C13 4.29 13 8.58 13 13 C8.71 13 4.42 13 0 13 C0 8.71 0 4.42 0 0 Z " fill="#62EC4C" transform="translate(280,266)"/>
<path d="M0 0 C4.29 0 8.58 0 13 0 C13 4.29 13 8.58 13 13 C8.71 13 4.42 13 0 13 C0 8.71 0 4.42 0 0 Z " fill="#6DFE55" transform="translate(28,251)"/>
<path d="M0 0 C4.29 0 8.58 0 13 0 C13 4.29 13 8.58 13 13 C8.71 13 4.42 13 0 13 C0 8.71 0 4.42 0 0 Z " fill="#61EE4C" transform="translate(280,251)"/>
<path d="M0 0 C4.29 0 8.58 0 13 0 C13 4.29 13 8.58 13 13 C8.71 13 4.42 13 0 13 C0 8.71 0 4.42 0 0 Z " fill="#62F04C" transform="translate(171,251)"/>
<path d="M0 0 C4.29 0 8.58 0 13 0 C13 4.29 13 8.58 13 13 C8.71 13 4.42 13 0 13 C0 8.71 0 4.42 0 0 Z " fill="#69FA52" transform="translate(130,251)"/>
<path d="M0 0 C4.29 0 8.58 0 13 0 C13 4.29 13 8.58 13 13 C8.71 13 4.42 13 0 13 C0 8.71 0 4.42 0 0 Z " fill="#69FA52" transform="translate(477,235)"/>
<path d="M0 0 C4.29 0 8.58 0 13 0 C13 4.29 13 8.58 13 13 C8.71 13 4.42 13 0 13 C0 8.71 0 4.42 0 0 Z " fill="#62F04C" transform="translate(321,235)"/>
<path d="M0 0 C4.29 0 8.58 0 13 0 C13 4.29 13 8.58 13 13 C8.71 13 4.42 13 0 13 C0 8.71 0 4.42 0 0 Z " fill="#69FA52" transform="translate(280,235)"/>
<path d="M0 0 C4.29 0 8.58 0 13 0 C13 4.29 13 8.58 13 13 C8.71 13 4.42 13 0 13 C0 8.71 0 4.42 0 0 Z " fill="#63F44D" transform="translate(171,235)"/>
<path d="M0 0 C4.29 0 8.58 0 13 0 C13 4.29 13 8.58 13 13 C8.71 13 4.42 13 0 13 C0 8.71 0 4.42 0 0 Z " fill="#69FA51" transform="translate(130,235)"/>
<path d="M0 0 C4.29 0 8.58 0 13 0 C13 4.29 13 8.58 13 13 C8.71 13 4.42 13 0 13 C0 8.71 0 4.42 0 0 Z " fill="#6DFD55" transform="translate(89,235)"/>
<path d="M0 0 C4.29 0 8.58 0 13 0 C13 4.29 13 8.58 13 13 C8.71 13 4.42 13 0 13 C0 8.71 0 4.42 0 0 Z " fill="#62F34D" transform="translate(28,235)"/>
<path d="M0 0 C4.29 0 8.58 0 13 0 C13 4.29 13 8.58 13 13 C8.71 13 4.42 13 0 13 C0 8.71 0 4.42 0 0 Z " fill="#67F850" transform="translate(477,220)"/>
<path d="M0 0 C4.29 0 8.58 0 13 0 C13 4.29 13 8.58 13 13 C8.71 13 4.42 13 0 13 C0 8.71 0 4.42 0 0 Z " fill="#63F34D" transform="translate(246,220)"/>
<path d="M0 0 C4.29 0 8.58 0 13 0 C13 4.29 13 8.58 13 13 C8.71 13 4.42 13 0 13 C0 8.71 0 4.42 0 0 Z " fill="#67F850" transform="translate(198,220)"/>
<path d="M0 0 C4.29 0 8.58 0 13 0 C13 4.29 13 8.58 13 13 C8.71 13 4.42 13 0 13 C0 8.71 0 4.42 0 0 Z " fill="#65F64F" transform="translate(28,220)"/>
<path d="M0 0 C4.29 0 8.58 0 13 0 C13 4.29 13 8.58 13 13 C8.71 13 4.42 13 0 13 C0 8.71 0 4.42 0 0 Z " fill="#62F04C" transform="translate(321,205)"/>
<path d="M0 0 C4.29 0 8.58 0 13 0 C13 4.29 13 8.58 13 13 C8.71 13 4.42 13 0 13 C0 8.71 0 4.42 0 0 Z " fill="#67F850" transform="translate(477,205)"/>
<path d="M0 0 C4.29 0 8.58 0 13 0 C13 4.29 13 8.58 13 13 C8.71 13 4.42 13 0 13 C0 8.71 0 4.42 0 0 Z " fill="#63F24D" transform="translate(246,205)"/>
<path d="M0 0 C4.29 0 8.58 0 13 0 C13 4.29 13 8.58 13 13 C8.71 13 4.42 13 0 13 C0 8.71 0 4.42 0 0 Z " fill="#66F750" transform="translate(198,205)"/>
<path d="M0 0 C4.29 0 8.58 0 13 0 C13 4.29 13 8.58 13 13 C8.71 13 4.42 13 0 13 C0 8.71 0 4.42 0 0 Z " fill="#69FC52" transform="translate(28,205)"/>
<path d="M0 0 C4.29 0 8.58 0 13 0 C13 4.29 13 8.58 13 13 C8.71 13 4.42 13 0 13 C0 8.71 0 4.42 0 0 Z " fill="#61EC4C" transform="translate(321,190)"/>
<path d="M0 0 C2.908125 0.0309375 2.908125 0.0309375 5.875 0.0625 C5.875 4.0225 5.875 7.9825 5.875 12.0625 C3.93625 12.083125 1.9975 12.10375 0 12.125 C-1.09054687 12.13660156 -2.18109375 12.14820313 -3.3046875 12.16015625 C-6.125 12.0625 -6.125 12.0625 -8.125 11.0625 C-8.125 7.7625 -8.125 4.4625 -8.125 1.0625 C-5.36047967 -0.31976016 -3.0788637 -0.03275387 0 0 Z " fill="#61F04C" transform="translate(348.125,280.9375)"/>
<path d="M0 0 C4.29 0 8.58 0 13 0 C13 3.96 13 7.92 13 12 C8.71 12 4.42 12 0 12 C0 8.04 0 4.08 0 0 Z " fill="#66F74F" transform="translate(477,266)"/>
<path d="M0 0 C4.29 0 8.58 0 13 0 C13 3.96 13 7.92 13 12 C8.71 12 4.42 12 0 12 C0 8.04 0 4.08 0 0 Z " fill="#66F74F" transform="translate(130,266)"/>
<path d="M0 0 C4.29 0 8.58 0 13 0 C13 3.96 13 7.92 13 12 C8.71 12 4.42 12 0 12 C0 8.04 0 4.08 0 0 Z " fill="#6AFB52" transform="translate(89,266)"/>
<path d="M0 0 C4.29 0 8.58 0 13 0 C13 3.96 13 7.92 13 12 C8.71 12 4.42 12 0 12 C0 8.04 0 4.08 0 0 Z " fill="#69FB52" transform="translate(28,266)"/>
<path d="M0 0 C4.29 0 8.58 0 13 0 C13 3.96 13 7.92 13 12 C8.71 12 4.42 12 0 12 C0 8.04 0 4.08 0 0 Z " fill="#66F74F" transform="translate(477,251)"/>
<path d="M0 0 C4.29 0 8.58 0 13 0 C13 3.96 13 7.92 13 12 C8.71 12 4.42 12 0 12 C0 8.04 0 4.08 0 0 Z " fill="#69FB52" transform="translate(89,251)"/>
<path d="M0 0 C0.66 0 1.32 0 2 0 C2 0.66 2 1.32 2 2 C2.66 2 3.32 2 4 2 C4 5.63 4 9.26 4 13 C21.82 13 39.64 13 58 13 C58 8.71 58 4.42 58 0 C58.33 0 58.66 0 59 0 C59 4.62 59 9.24 59 14 C40.19 14 21.38 14 2 14 C2 13.34 2 12.68 2 12 C1.34 12 0.68 12 0 12 C0 12.66 0 13.32 0 14 C-0.66 14 -1.32 14 -2 14 C-2.63394697 9.95858806 -3.12404452 6.0934693 -3 2 C-2.01 2 -1.02 2 0 2 C0 1.34 0 0.68 0 0 Z " fill="#27621F" transform="translate(296,220)"/>
<path d="M0 0 C3.63 0.33 7.26 0.66 11 1 C11 4.3 11 7.6 11 11 C15.62 11 20.24 11 25 11 C25 7.37 25 3.74 25 0 C25.33 0 25.66 0 26 0 C26 3.96 26 7.92 26 12 C17.42 12 8.84 12 0 12 C0 8.04 0 4.08 0 0 Z " fill="#68F851" transform="translate(464,191)"/>
<path d="M0 0 C8.58 0 17.16 0 26 0 C26 3.63 26 7.26 26 11 C34.91 11 43.82 11 53 11 C53 7.7 53 4.4 53 1 C52.01 0.67 51.02 0.34 50 0 C51.32 0 52.64 0 54 0 C54 3.96 54 7.92 54 12 C36.51 12 19.02 12 1 12 C1 11.67 1 11.34 1 11 C7.6 11 14.2 11 21 11 C21 7.7 21 4.4 21 1 C14.4 1.33 7.8 1.66 1 2 C0.67 1.34 0.34 0.68 0 0 Z " fill="#6CFC54" transform="translate(300,221)"/>
<path d="M0 0 C4.62 0 9.24 0 14 0 C14 3.3 14 6.6 14 10 C9.38 10 4.76 10 0 10 C0 6.7 0 3.4 0 0 Z " fill="#62F44C" transform="translate(375,282)"/>
<path d="M0 0 C2.31 0 4.62 0 7 0 C7 4.29 7 8.58 7 13 C24.82 13 42.64 13 61 13 C61 13.33 61 13.66 61 14 C42.52 14 24.04 14 5 14 C4.67 12.68 4.34 11.36 4 10 C3.67 11.32 3.34 12.64 3 14 C2.34 14 1.68 14 1 14 C-0.125 7.25 -0.125 7.25 1 5 C0.34 5 -0.32 5 -1 5 C-0.67 3.35 -0.34 1.7 0 0 Z " fill="#296620" transform="translate(191,235)"/>
<path d="M0 0 C3.96 0 7.92 0 12 0 C12 3.63 12 7.26 12 11 C8.04 11 4.08 11 0 11 C0 7.37 0 3.74 0 0 Z " fill="#63F64D" transform="translate(124,221)"/>
<path d="M0 0 C0.66 0 1.32 0 2 0 C2 0.66 2 1.32 2 2 C2.66 2 3.32 2 4 2 C4.33 1.34 4.66 0.68 5 0 C5 4.29 5 8.58 5 13 C13.58 13 22.16 13 31 13 C31 8.71 31 4.42 31 0 C31.33 0 31.66 0 32 0 C32 4.62 32 9.24 32 14 C21.11 14 10.22 14 -1 14 C-1 13.34 -1 12.68 -1 12 C-1.66 12 -2.32 12 -3 12 C-3 10.35 -3 8.7 -3 7 C-2.34 7 -1.68 7 -1 7 C-1 6.34 -1 5.68 -1 5 C-1.66 4.67 -2.32 4.34 -3 4 C-2.34 4 -1.68 4 -1 4 C-0.67 2.68 -0.34 1.36 0 0 Z " fill="#28641F" transform="translate(459,190)"/>
<path d="M0 0 C1.65 0 3.3 0 5 0 C5 0.66 5 1.32 5 2 C5.66 2 6.32 2 7 2 C7 5.63 7 9.26 7 13 C11.29 13 15.58 13 20 13 C20 9.04 20 5.08 20 1 C15.71 1 11.42 1 7 1 C7 0.67 7 0.34 7 0 C11.62 0 16.24 0 21 0 C21 4.62 21 9.24 21 14 C15.72 14 10.44 14 5 14 C5 13.34 5 12.68 5 12 C4.34 12 3.68 12 3 12 C3 12.66 3 13.32 3 14 C2.34 14 1.68 14 1 14 C0.22887459 9.27685687 -0.09764874 4.78478822 0 0 Z " fill="#2D7023" transform="translate(470,265)"/>
<path d="M0 0 C1.98 0 3.96 0 6 0 C6 3.63 6 7.26 6 11 C12.27 11 18.54 11 25 11 C25 7.7 25 4.4 25 1 C19.06 1 13.12 1 7 1 C7 0.67 7 0.34 7 0 C13.27 0 19.54 0 26 0 C26 3.96 26 7.92 26 12 C17.42 12 8.84 12 0 12 C0 8.04 0 4.08 0 0 Z " fill="#70FE58" transform="translate(28,311)"/>
<path d="M0 0 C1.98 0 3.96 0 6 0 C6 3.63 6 7.26 6 11 C12.27 11 18.54 11 25 11 C25 7.7 25 4.4 25 1 C19.06 1 13.12 1 7 1 C7 0.67 7 0.34 7 0 C13.27 0 19.54 0 26 0 C26 3.96 26 7.92 26 12 C17.42 12 8.84 12 0 12 C0 8.04 0 4.08 0 0 Z " fill="#70FE57" transform="translate(28,191)"/>
<path d="M0 0 C3.96 0 7.92 0 12 0 C12 3.3 12 6.6 12 10 C8.04 10 4.08 10 0 10 C0 6.7 0 3.4 0 0 Z " fill="#63F54D" transform="translate(404,222)"/>
<path d="M0 0 C0.66 0 1.32 0 2 0 C2 0.66 2 1.32 2 2 C2.66 2 3.32 2 4 2 C4.33 1.34 4.66 0.68 5 0 C5 4.29 5 8.58 5 13 C9.29 13 13.58 13 18 13 C18 13.66 18 14.32 18 15 C11.73 15 5.46 15 -1 15 C-1 14.01 -1 13.02 -1 12 C-1.66 12 -2.32 12 -3 12 C-3 10.35 -3 8.7 -3 7 C-2.34 7 -1.68 7 -1 7 C-1 6.34 -1 5.68 -1 5 C-1.66 4.67 -2.32 4.34 -3 4 C-2.34 4 -1.68 4 -1 4 C-0.67 2.68 -0.34 1.36 0 0 Z " fill="#1A4114" transform="translate(316,205)"/>
<path d="M0 0 C5.94 0 11.88 0 18 0 C18 4.62 18 9.24 18 14 C11.4 14 4.8 14 -2 14 C-2.33 12.68 -2.66 11.36 -3 10 C-2.01 9.67 -1.02 9.34 0 9 C0 8.34 0 7.68 0 7 C-1.32 6.67 -2.64 6.34 -4 6 C-4 5.34 -4 4.68 -4 4 C-3.34 4 -2.68 4 -2 4 C-2 3.34 -2 2.68 -2 2 C-1.34 2 -0.68 2 0 2 C0 1.34 0 0.68 0 0 Z M4 1 C4 4.96 4 8.92 4 13 C8.29 13 12.58 13 17 13 C17 9.04 17 5.08 17 1 C12.71 1 8.42 1 4 1 Z " fill="#348229" transform="translate(126,265)"/>
<path d="M0 0 C5.61 0 11.22 0 17 0 C17 0.33 17 0.66 17 1 C12.71 1 8.42 1 4 1 C4 4.96 4 8.92 4 13 C8.29 13 12.58 13 17 13 C17 13.33 17 13.66 17 14 C10.73 14 4.46 14 -2 14 C-2 13.34 -2 12.68 -2 12 C-2.66 12 -3.32 12 -4 12 C-4 9.36 -4 6.72 -4 4 C-3.34 4 -2.68 4 -2 4 C-2 3.34 -2 2.68 -2 2 C-1.34 2 -0.68 2 0 2 C0 1.34 0 0.68 0 0 Z " fill="#296720" transform="translate(24,265)"/>
<path d="M0 0 C2.31 0 4.62 0 7 0 C7 4.29 7 8.58 7 13 C11.29 13 15.58 13 20 13 C20 8.71 20 4.42 20 0 C20.33 0 20.66 0 21 0 C21 4.62 21 9.24 21 14 C15.72 14 10.44 14 5 14 C5 13.34 5 12.68 5 12 C4.34 12 3.68 12 3 12 C3 12.66 3 13.32 3 14 C2.34 14 1.68 14 1 14 C1 13.34 1 12.68 1 12 C0.34 12 -0.32 12 -1 12 C-0.9278125 11.38511719 -0.855625 10.77023438 -0.78125 10.13671875 C-0.64203125 8.92435547 -0.64203125 8.92435547 -0.5 7.6875 C-0.4071875 6.88699219 -0.314375 6.08648437 -0.21875 5.26171875 C0.04813463 2.88103445 0.04813463 2.88103445 0 0 Z " fill="#23571B" transform="translate(191,205)"/>
<path d="M0 0 C1.65 0 3.3 0 5 0 C5 0.66 5 1.32 5 2 C5.66 2 6.32 2 7 2 C7 5.63 7 9.26 7 13 C11.29 13 15.58 13 20 13 C20 8.71 20 4.42 20 0 C20.33 0 20.66 0 21 0 C21 4.62 21 9.24 21 14 C15.72 14 10.44 14 5 14 C5 13.34 5 12.68 5 12 C4.34 12 3.68 12 3 12 C3 12.66 3 13.32 3 14 C2.34 14 1.68 14 1 14 C0.22887459 9.27685687 -0.09764874 4.78478822 0 0 Z " fill="#27601E" transform="translate(470,280)"/>
<path d="M0 0 C1.65 0 3.3 0 5 0 C5 0.66 5 1.32 5 2 C5.66 2 6.32 2 7 2 C7 5.63 7 9.26 7 13 C11.29 13 15.58 13 20 13 C20 8.71 20 4.42 20 0 C20.33 0 20.66 0 21 0 C21 4.62 21 9.24 21 14 C15.72 14 10.44 14 5 14 C5 13.34 5 12.68 5 12 C4.34 12 3.68 12 3 12 C3 12.66 3 13.32 3 14 C2.34 14 1.68 14 1 14 C0.22887459 9.27685687 -0.09764874 4.78478822 0 0 Z " fill="#23561B" transform="translate(470,295)"/>
<path d="M0 0 C1.65 0 3.3 0 5 0 C5 0.66 5 1.32 5 2 C5.66 2 6.32 2 7 2 C7 5.63 7 9.26 7 13 C11.29 13 15.58 13 20 13 C20 8.71 20 4.42 20 0 C20.33 0 20.66 0 21 0 C21 4.62 21 9.24 21 14 C15.72 14 10.44 14 5 14 C5 13.34 5 12.68 5 12 C4.34 12 3.68 12 3 12 C3 12.66 3 13.32 3 14 C2.34 14 1.68 14 1 14 C0.22887459 9.27685687 -0.09764874 4.78478822 0 0 Z " fill="#22531A" transform="translate(470,205)"/>
<path d="M0 0 C1.65 0 3.3 0 5 0 C5 0.66 5 1.32 5 2 C5.66 2 6.32 2 7 2 C7 5.63 7 9.26 7 13 C11.29 13 15.58 13 20 13 C20 8.71 20 4.42 20 0 C20.33 0 20.66 0 21 0 C21 4.62 21 9.24 21 14 C15.72 14 10.44 14 5 14 C5 13.34 5 12.68 5 12 C4.34 12 3.68 12 3 12 C3 12.66 3 13.32 3 14 C2.34 14 1.68 14 1 14 C0.22887459 9.27685687 -0.09764874 4.78478822 0 0 Z " fill="#296620" transform="translate(361,235)"/>
<path d="M0 0 C2.31 0 4.62 0 7 0 C7 4.29 7 8.58 7 13 C11.29 13 15.58 13 20 13 C20 8.71 20 4.42 20 0 C20.33 0 20.66 0 21 0 C21 4.62 21 9.24 21 14 C15.72 14 10.44 14 5 14 C4.67 12.68 4.34 11.36 4 10 C3.67 11.32 3.34 12.64 3 14 C2.34 14 1.68 14 1 14 C-0.125 7.25 -0.125 7.25 1 5 C0.34 5 -0.32 5 -1 5 C-0.67 3.35 -0.34 1.7 0 0 Z " fill="#27611E" transform="translate(123,235)"/>
<path d="M0 0 C1.65 0 3.3 0 5 0 C5 0.66 5 1.32 5 2 C5.66 2 6.32 2 7 2 C7.33 1.34 7.66 0.68 8 0 C8 4.29 8 8.58 8 13 C12.29 13 16.58 13 21 13 C21 13.33 21 13.66 21 14 C14.73 14 8.46 14 2 14 C2 13.34 2 12.68 2 12 C1.34 12 0.68 12 0 12 C0 10.35 0 8.7 0 7 C0.66 7 1.32 7 2 7 C2 6.34 2 5.68 2 5 C1.34 5 0.68 5 0 5 C0 3.35 0 1.7 0 0 Z " fill="#2A6921" transform="translate(313,235)"/>
<path d="M0 0 C5.61 0 11.22 0 17 0 C17 0.33 17 0.66 17 1 C12.71 1 8.42 1 4 1 C4 5.29 4 9.58 4 14 C-2 14 -2 14 -4 13 C-4 12.34 -4 11.68 -4 11 C-3.34 11 -2.68 11 -2 11 C-2 10.34 -2 9.68 -2 9 C-2.66 9 -3.32 9 -4 9 C-4 7.35 -4 5.7 -4 4 C-3.34 4 -2.68 4 -2 4 C-2 3.34 -2 2.68 -2 2 C-1.34 2 -0.68 2 0 2 C0 1.34 0 0.68 0 0 Z " fill="#255C1D" transform="translate(276,250)"/>
<path d="M0 0 C5.61 0 11.22 0 17 0 C17 0.33 17 0.66 17 1 C12.71 1 8.42 1 4 1 C4 5.29 4 9.58 4 14 C-2 14 -2 14 -4 13 C-4 12.34 -4 11.68 -4 11 C-3.34 11 -2.68 11 -2 11 C-2 10.34 -2 9.68 -2 9 C-2.66 9 -3.32 9 -4 9 C-4 7.35 -4 5.7 -4 4 C-3.34 4 -2.68 4 -2 4 C-2 3.34 -2 2.68 -2 2 C-1.34 2 -0.68 2 0 2 C0 1.34 0 0.68 0 0 Z " fill="#23581B" transform="translate(167,250)"/>
<path d="M0 0 C1.32 0 2.64 0 4 0 C4 4.29 4 8.58 4 13 C8.29 13 12.58 13 17 13 C17 13.33 17 13.66 17 14 C10.73 14 4.46 14 -2 14 C-2 13.34 -2 12.68 -2 12 C-2.66 12 -3.32 12 -4 12 C-4 10.35 -4 8.7 -4 7 C-3.34 7 -2.68 7 -2 7 C-2 6.34 -2 5.68 -2 5 C-2.66 5 -3.32 5 -4 5 C-4 4.34 -4 3.68 -4 3 C-2.68 2.67 -1.36 2.34 0 2 C0 1.34 0 0.68 0 0 Z " fill="#215219" transform="translate(24,220)"/>
<path d="M0 0 C1.32 0 2.64 0 4 0 C4 4.29 4 8.58 4 13 C8.29 13 12.58 13 17 13 C17 13.33 17 13.66 17 14 C10.73 14 4.46 14 -2 14 C-2 13.34 -2 12.68 -2 12 C-2.66 12 -3.32 12 -4 12 C-4 10.35 -4 8.7 -4 7 C-3.34 7 -2.68 7 -2 7 C-2 6.34 -2 5.68 -2 5 C-2.66 5 -3.32 5 -4 5 C-4 4.34 -4 3.68 -4 3 C-2.68 2.67 -1.36 2.34 0 2 C0 1.34 0 0.68 0 0 Z " fill="#2B6C22" transform="translate(24,295)"/>
<path d="M0 0 C1.32 0 2.64 0 4 0 C4 4.29 4 8.58 4 13 C8.29 13 12.58 13 17 13 C17 13.33 17 13.66 17 14 C10.73 14 4.46 14 -2 14 C-2 13.34 -2 12.68 -2 12 C-2.66 12 -3.32 12 -4 12 C-4 9.36 -4 6.72 -4 4 C-3.34 4 -2.68 4 -2 4 C-2 3.34 -2 2.68 -2 2 C-1.34 2 -0.68 2 0 2 C0 1.34 0 0.68 0 0 Z " fill="#24591C" transform="translate(24,280)"/>
<path d="M0 0 C5.94 0 11.88 0 18 0 C18 4.62 18 9.24 18 14 C17.67 14 17.34 14 17 14 C17 9.71 17 5.42 17 1 C12.71 1 8.42 1 4 1 C4 5.29 4 9.58 4 14 C3.34 14 2.68 14 2 14 C2 13.34 2 12.68 2 12 C1.34 12 0.68 12 0 12 C0 12.66 0 13.32 0 14 C-0.66 14 -1.32 14 -2 14 C-2.33 12.68 -2.66 11.36 -3 10 C-2.01 9.67 -1.02 9.34 0 9 C0 8.34 0 7.68 0 7 C-0.99 6.67 -1.98 6.34 -3 6 C-2.67 4.68 -2.34 3.36 -2 2 C-1.34 2 -0.68 2 0 2 C0 1.34 0 0.68 0 0 Z " fill="#245A1C" transform="translate(126,250)"/>
<path d="M0 0 C3.3 0 6.6 0 10 0 C10 3.3 10 6.6 10 10 C6.7 10 3.4 10 0 10 C0 6.7 0 3.4 0 0 Z " fill="#63F54D" transform="translate(329,282)"/>
<path d="M0 0 C0.33 0.66 0.66 1.32 1 2 C1.66 2 2.32 2 3 2 C3.33 1.34 3.66 0.68 4 0 C4 4.29 4 8.58 4 13 C8.29 13 12.58 13 17 13 C17 13.33 17 13.66 17 14 C10.73 14 4.46 14 -2 14 C-2 13.34 -2 12.68 -2 12 C-2.66 12 -3.32 12 -4 12 C-4 9.36 -4 6.72 -4 4 C-3.34 4 -2.68 4 -2 4 C-2 3.34 -2 2.68 -2 2 C-1.34 2 -0.68 2 0 2 C0 1.34 0 0.68 0 0 Z " fill="#28621F" transform="translate(276,280)"/>
<path d="M0 0 C0.33 0.66 0.66 1.32 1 2 C1.66 2 2.32 2 3 2 C3.33 1.34 3.66 0.68 4 0 C4 4.29 4 8.58 4 13 C8.29 13 12.58 13 17 13 C17 13.33 17 13.66 17 14 C10.73 14 4.46 14 -2 14 C-2 13.34 -2 12.68 -2 12 C-2.66 12 -3.32 12 -4 12 C-4 10.35 -4 8.7 -4 7 C-3.34 7 -2.68 7 -2 7 C-2 6.34 -2 5.68 -2 5 C-2.66 5 -3.32 5 -4 5 C-4 4.34 -4 3.68 -4 3 C-2.68 2.67 -1.36 2.34 0 2 C0 1.34 0 0.68 0 0 Z " fill="#1E4B17" transform="translate(24,235)"/>
<path d="M0 0 C0.33 0.66 0.66 1.32 1 2 C1.66 2 2.32 2 3 2 C3.33 1.34 3.66 0.68 4 0 C4 4.29 4 8.58 4 13 C8.29 13 12.58 13 17 13 C17 13.33 17 13.66 17 14 C10.73 14 4.46 14 -2 14 C-2 13.34 -2 12.68 -2 12 C-2.66 12 -3.32 12 -4 12 C-4 10.35 -4 8.7 -4 7 C-3.34 7 -2.68 7 -2 7 C-2 6.34 -2 5.68 -2 5 C-2.66 5 -3.32 5 -4 5 C-4 4.34 -4 3.68 -4 3 C-2.68 2.67 -1.36 2.34 0 2 C0 1.34 0 0.68 0 0 Z " fill="#13300F" transform="translate(167,235)"/>
<path d="M0 0 C0.33 0.66 0.66 1.32 1 2 C1.66 2 2.32 2 3 2 C3.33 1.34 3.66 0.68 4 0 C4 4.29 4 8.58 4 13 C8.29 13 12.58 13 17 13 C17 13.33 17 13.66 17 14 C10.73 14 4.46 14 -2 14 C-2 13.34 -2 12.68 -2 12 C-2.66 12 -3.32 12 -4 12 C-4 10.35 -4 8.7 -4 7 C-3.34 7 -2.68 7 -2 7 C-2 6.34 -2 5.68 -2 5 C-2.66 5 -3.32 5 -4 5 C-4 4.34 -4 3.68 -4 3 C-2.68 2.67 -1.36 2.34 0 2 C0 1.34 0 0.68 0 0 Z " fill="#23571B" transform="translate(276,220)"/>
<path d="M0 0 C0.66 0 1.32 0 2 0 C2 0.66 2 1.32 2 2 C2.66 2 3.32 2 4 2 C4.33 1.34 4.66 0.68 5 0 C5 4.29 5 8.58 5 13 C9.29 13 13.58 13 18 13 C18 13.33 18 13.66 18 14 C11.73 14 5.46 14 -1 14 C-1 13.34 -1 12.68 -1 12 C-1.66 12 -2.32 12 -3 12 C-3 10.35 -3 8.7 -3 7 C-2.34 7 -1.68 7 -1 7 C-1 6.34 -1 5.68 -1 5 C-1.66 4.67 -2.32 4.34 -3 4 C-2.34 4 -1.68 4 -1 4 C-0.67 2.68 -0.34 1.36 0 0 Z " fill="#265E1D" transform="translate(316,190)"/>
<path d="M0 0 C1.65 0 3.3 0 5 0 C5 0.66 5 1.32 5 2 C5.66 2 6.32 2 7 2 C7 5.63 7 9.26 7 13 C11.29 13 15.58 13 20 13 C20 13.33 20 13.66 20 14 C15.05 14 10.1 14 5 14 C5 13.34 5 12.68 5 12 C4.34 12 3.68 12 3 12 C3 12.66 3 13.32 3 14 C2.34 14 1.68 14 1 14 C0.22887459 9.27685687 -0.09764874 4.78478822 0 0 Z " fill="#24591C" transform="translate(470,220)"/>
<path d="M0 0 C0.33 0.66 0.66 1.32 1 2 C1.66 2 2.32 2 3 2 C3 1.34 3 0.68 3 0 C7.62 0 12.24 0 17 0 C17 0.33 17 0.66 17 1 C12.71 1 8.42 1 4 1 C4 4.96 4 8.92 4 13 C3.67 12.01 3.34 11.02 3 10 C2.34 10 1.68 10 1 10 C0.67 11.32 0.34 12.64 0 14 C-0.66 14 -1.32 14 -2 14 C-2 13.34 -2 12.68 -2 12 C-2.66 12 -3.32 12 -4 12 C-4 9.36 -4 6.72 -4 4 C-3.34 4 -2.68 4 -2 4 C-2 3.34 -2 2.68 -2 2 C-1.34 2 -0.68 2 0 2 C0 1.34 0 0.68 0 0 Z " fill="#327D27" transform="translate(276,265)"/>
<path d="M0 0 C5.61 0 11.22 0 17 0 C17 0.33 17 0.66 17 1 C12.71 1 8.42 1 4 1 C4 5.29 4 9.58 4 14 C3.34 13.67 2.68 13.34 2 13 C2.33 11.02 2.66 9.04 3 7 C2.34 7 1.68 7 1 7 C1 8.98 1 10.96 1 13 C0.01 13.33 -0.98 13.66 -2 14 C-2.66 13.67 -3.32 13.34 -4 13 C-4 12.34 -4 11.68 -4 11 C-3.34 11 -2.68 11 -2 11 C-2 10.34 -2 9.68 -2 9 C-2.66 9 -3.32 9 -4 9 C-4 7.35 -4 5.7 -4 4 C-3.34 4 -2.68 4 -2 4 C-2 3.34 -2 2.68 -2 2 C-1.34 2 -0.68 2 0 2 C0 1.34 0 0.68 0 0 Z " fill="#36862A" transform="translate(24,250)"/>
<path d="M0 0 C1.32 0 2.64 0 4 0 C4 4.62 4 9.24 4 14 C2.02 14 0.04 14 -2 14 C-2 13.34 -2 12.68 -2 12 C-2.66 12 -3.32 12 -4 12 C-4 10.35 -4 8.7 -4 7 C-3.34 7 -2.68 7 -2 7 C-2 6.34 -2 5.68 -2 5 C-2.66 5 -3.32 5 -4 5 C-4 4.34 -4 3.68 -4 3 C-2.68 2.67 -1.36 2.34 0 2 C0 1.34 0 0.68 0 0 Z " fill="#132F0E" transform="translate(24,190)"/>
<path d="M0 0 C0.33 0.66 0.66 1.32 1 2 C1.66 2 2.32 2 3 2 C3.33 1.34 3.66 0.68 4 0 C4 4.62 4 9.24 4 14 C2.02 14 0.04 14 -2 14 C-2 13.34 -2 12.68 -2 12 C-2.66 12 -3.32 12 -4 12 C-4 9.36 -4 6.72 -4 4 C-3.34 4 -2.68 4 -2 4 C-2 3.34 -2 2.68 -2 2 C-1.34 2 -0.68 2 0 2 C0 1.34 0 0.68 0 0 Z " fill="#23571B" transform="translate(167,280)"/>
<path d="M0 0 C1.32 0.33 2.64 0.66 4 1 C4 4.3 4 7.6 4 11 C5.32 11 6.64 11 8 11 C8 7.7 8 4.4 8 1 C8.99 1 9.98 1 11 1 C11 4.3 11 7.6 11 11 C11.66 11.33 12.32 11.66 13 12 C8.71 12 4.42 12 0 12 C0 8.04 0 4.08 0 0 Z " fill="#68F951" transform="translate(321,191)"/>
<path d="M0 0 C1.32 0 2.64 0 4 0 C4 4.62 4 9.24 4 14 C3.34 14 2.68 14 2 14 C2 13.34 2 12.68 2 12 C1.34 12 0.68 12 0 12 C0 12.66 0 13.32 0 14 C-0.66 14 -1.32 14 -2 14 C-2.5745952 10.26513121 -3 6.78706732 -3 3 C-2.01 2.67 -1.02 2.34 0 2 C0 1.34 0 0.68 0 0 Z " fill="#1B4215" transform="translate(194,280)"/>
<path d="M0 0 C0.33 0.66 0.66 1.32 1 2 C1.66 2 2.32 2 3 2 C3.33 1.34 3.66 0.68 4 0 C4 4.29 4 8.58 4 13 C8.29 13 12.58 13 17 13 C17 13.33 17 13.66 17 14 C10.73 14 4.46 14 -2 14 C-2 13.34 -2 12.68 -2 12 C-2.66 12 -3.32 12 -4 12 C-4 10.35 -4 8.7 -4 7 C-2.02 7 -0.04 7 2 7 C2.33 5.68 2.66 4.36 3 3 C2.34 3 1.68 3 1 3 C0.67 3.66 0.34 4.32 0 5 C-1.32 5 -2.64 5 -4 5 C-4 4.34 -4 3.68 -4 3 C-2.68 2.67 -1.36 2.34 0 2 C0 1.34 0 0.68 0 0 Z " fill="#21531A" transform="translate(276,235)"/>
<path d="M0 0 C2.31 0 4.62 0 7 0 C7 4.29 7 8.58 7 13 C6.01 13.495 6.01 13.495 5 14 C5 13.34 5 12.68 5 12 C4.34 12 3.68 12 3 12 C3 12.66 3 13.32 3 14 C2.34 14 1.68 14 1 14 C0.22887459 9.27685687 -0.09764874 4.78478822 0 0 Z " fill="#1A4114" transform="translate(368,220)"/>
<path d="M0 0 C2.31 0 4.62 0 7 0 C7 4.29 7 8.58 7 13 C6.01 13.495 6.01 13.495 5 14 C5 13.34 5 12.68 5 12 C4.34 12 3.68 12 3 12 C3 12.66 3 13.32 3 14 C2.34 14 1.68 14 1 14 C0.22887459 9.27685687 -0.09764874 4.78478822 0 0 Z " fill="#1E4C18" transform="translate(82,220)"/>
<path d="M0 0 C1.32 0 2.64 0 4 0 C4 4.62 4 9.24 4 14 C2.02 14 0.04 14 -2 14 C-2.76173392 9.6835078 -3.16063604 6.25566547 -2 2 C-1.34 2 -0.68 2 0 2 C0 1.34 0 0.68 0 0 Z " fill="#23571B" transform="translate(126,280)"/>
<path d="M0 0 C4.29 0 8.58 0 13 0 C13 4.62 13 9.24 13 14 C8.71 14 4.42 14 0 14 C0 9.38 0 4.76 0 0 Z M1 2 C1 5.3 1 8.6 1 12 C4.3 12 7.6 12 11 12 C11 8.7 11 5.4 11 2 C7.7 2 4.4 2 1 2 Z " fill="#61E64C" transform="translate(171,265)"/>
<path d="M0 0 C0.33 0 0.66 0 1 0 C1 1.65 1 3.3 1 5 C1.66 5 2.32 5 3 5 C2.67 4.01 2.34 3.02 2 2 C2.66 1.34 3.32 0.68 4 0 C4 4.62 4 9.24 4 14 C2.02 14 0.04 14 -2 14 C-2 13.34 -2 12.68 -2 12 C-2.66 12 -3.32 12 -4 12 C-4 10.35 -4 8.7 -4 7 C-3.34 7 -2.68 7 -2 7 C-2 6.34 -2 5.68 -2 5 C-2.66 5 -3.32 5 -4 5 C-4 4.34 -4 3.68 -4 3 C-2.68 2.67 -1.36 2.34 0 2 C0 1.34 0 0.68 0 0 Z " fill="#27611E" transform="translate(24,310)"/>
<path d="M0 0 C0.66 0 1.32 0 2 0 C2 0.66 2 1.32 2 2 C2.66 2 3.32 2 4 2 C4 5.96 4 9.92 4 14 C3.34 14 2.68 14 2 14 C2 13.34 2 12.68 2 12 C1.34 12 0.68 12 0 12 C0 12.66 0 13.32 0 14 C-0.66 14 -1.32 14 -2 14 C-2.5745952 10.26513121 -3 6.78706732 -3 3 C-2.01 2.67 -1.02 2.34 0 2 C0 1.34 0 0.68 0 0 Z " fill="#1B4315" transform="translate(371,280)"/>
<path d="M0 0 C4.62 0 9.24 0 14 0 C13.67 0.66 13.34 1.32 13 2 C10.03 1.505 10.03 1.505 7 1 C7 4.63 7 8.26 7 12 C5.02 12 3.04 12 1 12 C0.67 8.04 0.34 4.08 0 0 Z " fill="#60ED4B" transform="translate(280,220)"/>
<path d="M0 0 C1.32 0 2.64 0 4 0 C4 4.62 4 9.24 4 14 C-2 14 -2 14 -4 13 C-3.34 11.68 -2.68 10.36 -2 9 C-1.34 9 -0.68 9 0 9 C0 8.34 0 7.68 0 7 C-0.99 6.67 -1.98 6.34 -3 6 C-2.67 4.68 -2.34 3.36 -2 2 C-1.34 2 -0.68 2 0 2 C0 1.34 0 0.68 0 0 Z " fill="#1D4917" transform="translate(194,250)"/>
<path d="M0 0 C1.32 0 2.64 0 4 0 C4 4.29 4 8.58 4 13 C3.34 12.34 2.68 11.68 2 11 C1.01 12.485 1.01 12.485 0 14 C-0.66 14 -1.32 14 -2 14 C-2 13.34 -2 12.68 -2 12 C-2.66 12 -3.32 12 -4 12 C-4 10.35 -4 8.7 -4 7 C-3.34 7 -2.68 7 -2 7 C-2 6.34 -2 5.68 -2 5 C-2.66 5 -3.32 5 -4 5 C-4 4.34 -4 3.68 -4 3 C-2.68 2.67 -1.36 2.34 0 2 C0 1.34 0 0.68 0 0 Z " fill="#193D13" transform="translate(24,205)"/>
<path d="M0 0 C1.32 0 2.64 0 4 0 C4 4.29 4 8.58 4 13 C3.01 13.495 3.01 13.495 2 14 C2 13.34 2 12.68 2 12 C1.34 12 0.68 12 0 12 C0 12.66 0 13.32 0 14 C-0.66 14 -1.32 14 -2 14 C-2.76173392 9.6835078 -3.16063604 6.25566547 -2 2 C-1.34 2 -0.68 2 0 2 C0 1.34 0 0.68 0 0 Z " fill="#1C4716" transform="translate(194,190)"/>
<path d="M0 0 C0.66 0 1.32 0 2 0 C2 0.66 2 1.32 2 2 C2.66 2 3.32 2 4 2 C4 5.96 4 9.92 4 14 C3.34 14 2.68 14 2 14 C2 13.34 2 12.68 2 12 C1.34 12 0.68 12 0 12 C0 12.66 0 13.32 0 14 C-0.66 14 -1.32 14 -2 14 C-2.76173392 9.6835078 -3.16063604 6.25566547 -2 2 C-1.34 2 -0.68 2 0 2 C0 1.34 0 0.68 0 0 Z " fill="#1D4917" transform="translate(85,280)"/>
<path d="M0 0 C0.66 0 1.32 0 2 0 C2 0.66 2 1.32 2 2 C2.66 2 3.32 2 4 2 C4.33 1.34 4.66 0.68 5 0 C5 4.29 5 8.58 5 13 C4.67 12.01 4.34 11.02 4 10 C3.34 10 2.68 10 2 10 C1.67 11.32 1.34 12.64 1 14 C0.34 14 -0.32 14 -1 14 C-1 13.34 -1 12.68 -1 12 C-1.66 12 -2.32 12 -3 12 C-3 10.35 -3 8.7 -3 7 C-2.34 7 -1.68 7 -1 7 C-1 6.34 -1 5.68 -1 5 C-1.66 4.67 -2.32 4.34 -3 4 C-2.34 4 -1.68 4 -1 4 C-0.67 2.68 -0.34 1.36 0 0 Z " fill="#1A4014" transform="translate(459,310)"/>
<path d="M0 0 C0.33 0.66 0.66 1.32 1 2 C1.66 2 2.32 2 3 2 C3.33 1.34 3.66 0.68 4 0 C4 4.29 4 8.58 4 13 C3.67 12.01 3.34 11.02 3 10 C2.34 10 1.68 10 1 10 C0.67 11.32 0.34 12.64 0 14 C-0.66 14 -1.32 14 -2 14 C-2 13.34 -2 12.68 -2 12 C-2.66 12 -3.32 12 -4 12 C-4 9.36 -4 6.72 -4 4 C-3.34 4 -2.68 4 -2 4 C-2 3.34 -2 2.68 -2 2 C-1.34 2 -0.68 2 0 2 C0 1.34 0 0.68 0 0 Z " fill="#193D13" transform="translate(167,265)"/>
<path d="M0 0 C1.65 0 3.3 0 5 0 C5 0.66 5 1.32 5 2 C5.66 2 6.32 2 7 2 C7 5.63 7 9.26 7 13 C6.01 13.495 6.01 13.495 5 14 C4.67 12.68 4.34 11.36 4 10 C3.67 11.32 3.34 12.64 3 14 C2.34 14 1.68 14 1 14 C-0.125 7.25 -0.125 7.25 1 5 C0.34 5 -0.32 5 -1 5 C-0.67 3.35 -0.34 1.7 0 0 Z " fill="#22541A" transform="translate(82,235)"/>
<path d="M0 0 C3.96 0 7.92 0 12 0 C12 3.96 12 7.92 12 12 C10.02 12 8.04 12 6 12 C6 8.37 6 4.74 6 1 C4.35 1 2.7 1 1 1 C0.67 1.99 0.34 2.98 0 4 C0 2.68 0 1.36 0 0 Z " fill="#62F24C" transform="translate(477,235)"/>
<path d="M0 0 C3.63 0 7.26 0 11 0 C11 3.96 11 7.92 11 12 C9.02 12 7.04 12 5 12 C5 8.37 5 4.74 5 1 C3.35 1 1.7 1 0 1 C0 0.67 0 0.34 0 0 Z " fill="#62F24C" transform="translate(90,235)"/>
<path d="M0 0 C1.98 0 3.96 0 6 0 C6 3.63 6 7.26 6 11 C7.98 11 9.96 11 12 11 C12 11.33 12 11.66 12 12 C7.71 12 3.42 12 -1 12 C-0.67 11.34 -0.34 10.68 0 10 C0.06996014 8.29297265 0.08440154 6.58331997 0.0625 4.875 C0.05347656 3.96492187 0.04445313 3.05484375 0.03515625 2.1171875 C0.02355469 1.41851562 0.01195313 0.71984375 0 0 Z " fill="#5FEA4A" transform="translate(29,252)"/>
<path d="M0 0 C4.29 0 8.58 0 13 0 C13 0.33 13 0.66 13 1 C11.02 1 9.04 1 7 1 C7 4.63 7 8.26 7 12 C5.02 12 3.04 12 1 12 C1.01160156 11.30132812 1.02320312 10.60265625 1.03515625 9.8828125 C1.04417969 8.97273438 1.05320312 8.06265625 1.0625 7.125 C1.07410156 6.22007812 1.08570312 5.31515625 1.09765625 4.3828125 C1.16249257 1.9831415 1.16249257 1.9831415 0 0 Z " fill="#5FEA4A" transform="translate(28,295)"/>
<path d="M0 0 C3.96 0 7.92 0 12 0 C12 3.96 12 7.92 12 12 C8.04 12 4.08 12 0 12 C0 11.67 0 11.34 0 11 C2.31 11 4.62 11 7 11 C7 7.7 7 4.4 7 1 C4.69 1 2.38 1 0 1 C0 0.67 0 0.34 0 0 Z " fill="#6AFA52" transform="translate(342,281)"/>
<path d="M0 0 C1.32 0 2.64 0 4 0 C4 4.62 4 9.24 4 14 C3.34 14 2.68 14 2 14 C2 13.34 2 12.68 2 12 C1.34 12 0.68 12 0 12 C0 12.66 0 13.32 0 14 C-0.66 14 -1.32 14 -2 14 C-2.33 12.68 -2.66 11.36 -3 10 C-2.01 9.67 -1.02 9.34 0 9 C0 8.34 0 7.68 0 7 C-0.99 6.67 -1.98 6.34 -3 6 C-2.67 4.68 -2.34 3.36 -2 2 C-1.34 2 -0.68 2 0 2 C0 1.34 0 0.68 0 0 Z " fill="#1D4816" transform="translate(194,265)"/>
<path d="M0 0 C1.32 0 2.64 0 4 0 C4 4.62 4 9.24 4 14 C3.34 14 2.68 14 2 14 C2 13.34 2 12.68 2 12 C1.34 12 0.68 12 0 12 C0 12.66 0 13.32 0 14 C-0.66 14 -1.32 14 -2 14 C-2.33 12.68 -2.66 11.36 -3 10 C-2.01 9.67 -1.02 9.34 0 9 C0 8.34 0 7.68 0 7 C-0.99 6.67 -1.98 6.34 -3 6 C-2.67 4.68 -2.34 3.36 -2 2 C-1.34 2 -0.68 2 0 2 C0 1.34 0 0.68 0 0 Z " fill="#1A4215" transform="translate(371,250)"/>
<path d="M0 0 C1.98 0 3.96 0 6 0 C5.98839844 0.69867188 5.97679687 1.39734375 5.96484375 2.1171875 C5.95582031 3.02726563 5.94679687 3.93734375 5.9375 4.875 C5.92589844 5.77992188 5.91429687 6.68484375 5.90234375 7.6171875 C5.83750743 10.0168585 5.83750743 10.0168585 7 12 C2.71 12 -1.58 12 -6 12 C-6 11.67 -6 11.34 -6 11 C-4.02 11 -2.04 11 0 11 C0 7.37 0 3.74 0 0 Z " fill="#5FEB4A" transform="translate(136,252)"/>
<path d="M0 0 C1.65 0 3.3 0 5 0 C5 0.66 5 1.32 5 2 C5.66 2 6.32 2 7 2 C7 4.64 7 7.28 7 10 C6.34 10 5.68 10 5 10 C5 10.66 5 11.32 5 12 C4.34 12 3.68 12 3 12 C3 12.66 3 13.32 3 14 C2.34 14 1.68 14 1 14 C0.22887459 9.27685687 -0.09764874 4.78478822 0 0 Z " fill="#1F4D18" transform="translate(470,235)"/>
<path d="M0 0 C4.29 0 8.58 0 13 0 C13 0.33 13 0.66 13 1 C11.02 1 9.04 1 7 1 C7 4.63 7 8.26 7 12 C5.02 12 3.04 12 1 12 C1.01160156 11.30132812 1.02320312 10.60265625 1.03515625 9.8828125 C1.04417969 8.97273437 1.05320312 8.06265625 1.0625 7.125 C1.07410156 6.22007812 1.08570312 5.31515625 1.09765625 4.3828125 C1.16249257 1.9831415 1.16249257 1.9831415 0 0 Z " fill="#60ED4B" transform="translate(28,205)"/>
<path d="M0 0 C1.32 0 2.64 0 4 0 C4 4.62 4 9.24 4 14 C3.34 14 2.68 14 2 14 C2.33 11.69 2.66 9.38 3 7 C2.34 7 1.68 7 1 7 C0.67 9.31 0.34 11.62 0 14 C-0.66 14 -1.32 14 -2 14 C-2 13.34 -2 12.68 -2 12 C-2.66 12 -3.32 12 -4 12 C-4 10.35 -4 8.7 -4 7 C-2.68 6.67 -1.36 6.34 0 6 C0 5.34 0 4.68 0 4 C-1.32 4.33 -2.64 4.66 -4 5 C-4 4.34 -4 3.68 -4 3 C-2.68 2.67 -1.36 2.34 0 2 C0 1.34 0 0.68 0 0 Z " fill="#21521A" transform="translate(412,265)"/>
<path d="M0 0 C3.96 0 7.92 0 12 0 C12 3.63 12 7.26 12 11 C10.02 11 8.04 11 6 11 C6 7.7 6 4.4 6 1 C4.02 1 2.04 1 0 1 C0 0.67 0 0.34 0 0 Z " fill="#66F950" transform="translate(281,266)"/>
<path d="M0 0 C0.66 0 1.32 0 2 0 C2 0.66 2 1.32 2 2 C2.66 2 3.32 2 4 2 C4 5.63 4 9.26 4 13 C-1 14 -1 14 -3 13 C-3 12.34 -3 11.68 -3 11 C-2.34 11 -1.68 11 -1 11 C-1 10.34 -1 9.68 -1 9 C-1.66 9 -2.32 9 -3 9 C-3 7.35 -3 5.7 -3 4 C-2.34 4 -1.68 4 -1 4 C-0.67 2.68 -0.34 1.36 0 0 Z " fill="#1B4315" transform="translate(316,250)"/>
<path d="M0 0 C2.475 0.495 2.475 0.495 5 1 C5 4.63 5 8.26 5 12 C7.64 12 10.28 12 13 12 C13 12.33 13 12.66 13 13 C8.71 13 4.42 13 0 13 C0 8.71 0 4.42 0 0 Z " fill="#6AFB53" transform="translate(321,235)"/>
<path d="M0 0 C1.98 0 3.96 0 6 0 C6 3.96 6 7.92 6 12 C4.02 12 2.04 12 0 12 C0 8.04 0 4.08 0 0 Z " fill="#62F24C" transform="translate(136,235)"/>
<path d="M0 0 C1.98 0 3.96 0 6 0 C6 3.96 6 7.92 6 12 C4.02 12 2.04 12 0 12 C0 8.04 0 4.08 0 0 Z " fill="#61F04B" transform="translate(281,235)"/>
<path d="M0 0 C2.97 0 5.94 0 9 0 C8.01 0.33 7.02 0.66 6 1 C6 4.3 6 7.6 6 11 C4.35 11 2.7 11 1 11 C-0.71466036 7.57067929 -0.05404056 3.78283935 0 0 Z " fill="#66F94F" transform="translate(130,281)"/>
<path d="M0 0 C1.98 0 3.96 0 6 0 C6 3.63 6 7.26 6 11 C4.02 11 2.04 11 0 11 C0 7.37 0 3.74 0 0 Z " fill="#65F94F" transform="translate(375,221)"/>
<path d="M0 0 C1.98 0 3.96 0 6 0 C6 3.63 6 7.26 6 11 C4.02 11 2.04 11 0 11 C0 7.37 0 3.74 0 0 Z " fill="#66FA4F" transform="translate(89,221)"/>
<path d="M0 0 C1.98 0 3.96 0 6 0 C6 3.63 6 7.26 6 11 C4.02 11 2.04 11 0 11 C0 7.37 0 3.74 0 0 Z " fill="#65F94F" transform="translate(287,191)"/>
<path d="M0 0 C0.66 0 1.32 0 2 0 C2 0.66 2 1.32 2 2 C2.66 2 3.32 2 4 2 C3.979375 3.2375 3.95875 4.475 3.9375 5.75 C3.93233319 8.6640825 4.06984442 11.20953327 5 14 C4.01 14 3.02 14 2 14 C2 13.34 2 12.68 2 12 C1.34 12 0.68 12 0 12 C-0.33 12.66 -0.66 13.32 -1 14 C-1 13.34 -1 12.68 -1 12 C-1.66 11.67 -2.32 11.34 -3 11 C-2.34 11 -1.68 11 -1 11 C-1 10.34 -1 9.68 -1 9 C-1.66 9 -2.32 9 -3 9 C-3 8.34 -3 7.68 -3 7 C-2.34 7 -1.68 7 -1 7 C-1 6.34 -1 5.68 -1 5 C-1.66 4.67 -2.32 4.34 -3 4 C-2.34 4 -1.68 4 -1 4 C-0.67 2.68 -0.34 1.36 0 0 Z " fill="#122E0E" transform="translate(323,280)"/>
<path d="M0 0 C0.66 0 1.32 0 2 0 C2 0.66 2 1.32 2 2 C2.66 2 3.32 2 4 2 C4 5.63 4 9.26 4 13 C2.35 13.33 0.7 13.66 -1 14 C-1 13.34 -1 12.68 -1 12 C-1.66 11.67 -2.32 11.34 -3 11 C-2.34 11 -1.68 11 -1 11 C-1 10.34 -1 9.68 -1 9 C-1.66 9 -2.32 9 -3 9 C-3 8.34 -3 7.68 -3 7 C-2.34 7 -1.68 7 -1 7 C-1 6.34 -1 5.68 -1 5 C-1.66 4.67 -2.32 4.34 -3 4 C-2.34 4 -1.68 4 -1 4 C-0.67 2.68 -0.34 1.36 0 0 Z " fill="#112B0D" transform="translate(248,250)"/>
<path d="M0 0 C0.33 0 0.66 0 1 0 C1 3.96 1 7.92 1 12 C2.98 12 4.96 12 7 12 C7 8.7 7 5.4 7 2 C8.32 2 9.64 2 11 2 C11 5.3 11 8.6 11 12 C11.66 12.33 12.32 12.66 13 13 C8.71 13 4.42 13 0 13 C0 8.71 0 4.42 0 0 Z " fill="#6AFA52" transform="translate(246,220)"/>
<path d="M0 0 C0.33 0 0.66 0 1 0 C1 3.63 1 7.26 1 11 C2.98 11 4.96 11 7 11 C7 7.7 7 4.4 7 1 C8.32 1 9.64 1 11 1 C11 4.3 11 7.6 11 11 C11.66 11.33 12.32 11.66 13 12 C8.71 12 4.42 12 0 12 C0 8.04 0 4.08 0 0 Z " fill="#69FA52" transform="translate(280,281)"/>
<path d="M0 0 C0.66 0 1.32 0 2 0 C2 0.99 2 1.98 2 3 C2.66 3 3.32 3 4 3 C3.979375 4.0725 3.95875 5.145 3.9375 6.25 C3.9857984 9.14790424 4.13155885 11.28612141 5 14 C4.38125 13.814375 3.7625 13.62875 3.125 13.4375 C0.95839822 12.76313824 0.95839822 12.76313824 -1 14 C-1 13.34 -1 12.68 -1 12 C-1.66 11.67 -2.32 11.34 -3 11 C-2.34 11 -1.68 11 -1 11 C-1 10.34 -1 9.68 -1 9 C-1.66 9 -2.32 9 -3 9 C-3 8.34 -3 7.68 -3 7 C-2.34 7 -1.68 7 -1 7 C-1 6.34 -1 5.68 -1 5 C-1.66 4.67 -2.32 4.34 -3 4 C-2.34 4 -1.68 4 -1 4 C-0.67 2.68 -0.34 1.36 0 0 Z " fill="#1D4917" transform="translate(248,265)"/>
<path d="M0 0 C4.29 0 8.58 0 13 0 C12.01 0.495 12.01 0.495 11 1 C11 4.3 11 7.6 11 11 C9.68 11 8.36 11 7 11 C7 7.7 7 4.4 7 1 C5.02 1 3.04 1 1 1 C1 4.63 1 8.26 1 12 C0.67 12 0.34 12 0 12 C0 8.04 0 4.08 0 0 Z " fill="#69FA52" transform="translate(280,251)"/>
<path d="M0 0 C4.29 0 8.58 0 13 0 C12.01 0.495 12.01 0.495 11 1 C11 4.3 11 7.6 11 11 C9.68 11 8.36 11 7 11 C7 7.7 7 4.4 7 1 C5.02 1 3.04 1 1 1 C1 4.63 1 8.26 1 12 C0.67 12 0.34 12 0 12 C0 8.04 0 4.08 0 0 Z " fill="#69FA52" transform="translate(171,251)"/>
<path d="M0 0 C0.33 0 0.66 0 1 0 C1 3.63 1 7.26 1 11 C2.98 11 4.96 11 7 11 C7 7.7 7 4.4 7 1 C8.32 1 9.64 1 11 1 C11 4.3 11 7.6 11 11 C11.66 11.33 12.32 11.66 13 12 C8.71 12 4.42 12 0 12 C0 8.04 0 4.08 0 0 Z " fill="#6AFA52" transform="translate(246,206)"/>
<path d="M0 0 C1.98 0 3.96 0 6 0 C6 3.3 6 6.6 6 10 C4.02 10 2.04 10 0 10 C0 6.7 0 3.4 0 0 Z " fill="#63F54D" transform="translate(465,312)"/>
<path d="M0 0 C1.98 0 3.96 0 6 0 C6 3.3 6 6.6 6 10 C4.02 10 2.04 10 0 10 C0 6.7 0 3.4 0 0 Z " fill="#65F94F" transform="translate(89,282)"/>
<path d="M0 0 C0.66 0 1.32 0 2 0 C2 0.99 2 1.98 2 3 C2.66 3 3.32 3 4 3 C4.36717663 10.4659249 4.36717663 10.4659249 2.625 13 C1 14 1 14 -1 14 C-1 13.34 -1 12.68 -1 12 C-1.66 11.67 -2.32 11.34 -3 11 C-2.34 11 -1.68 11 -1 11 C-1 10.34 -1 9.68 -1 9 C-1.66 9 -2.32 9 -3 9 C-3 7.35 -3 5.7 -3 4 C-2.34 4 -1.68 4 -1 4 C-0.67 2.68 -0.34 1.36 0 0 Z " fill="#1B4315" transform="translate(316,265)"/>
<path d="M0 0 C1.98 0 3.96 0 6 0 C6 3.3 6 6.6 6 10 C4.02 10 2.04 10 0 10 C0 6.7 0 3.4 0 0 Z " fill="#61F14C" transform="translate(322,267)"/>
<path d="M0 0 C1.98 0 3.96 0 6 0 C6 3.3 6 6.6 6 10 C4.02 10 2.04 10 0 10 C0 6.7 0 3.4 0 0 Z " fill="#62F24C" transform="translate(95,267)"/>
<path d="M0 0 C1.98 0 3.96 0 6 0 C6 3.3 6 6.6 6 10 C4.02 10 2.04 10 0 10 C0 6.7 0 3.4 0 0 Z " fill="#61F14C" transform="translate(29,267)"/>
<path d="M0 0 C1.98 0 3.96 0 6 0 C6 3.3 6 6.6 6 10 C4.02 10 2.04 10 0 10 C0 6.7 0 3.4 0 0 Z " fill="#62F24C" transform="translate(95,252)"/>
<path d="M0 0 C0.66 0 1.32 0 2 0 C2 0.66 2 1.32 2 2 C2.66 2.33 3.32 2.66 4 3 C3.34 3 2.68 3 2 3 C2 3.66 2 4.32 2 5 C3.32 4.67 4.64 4.34 6 4 C6 6.64 6 9.28 6 12 C5.34 12 4.68 12 4 12 C4 11.34 4 10.68 4 10 C3.34 10 2.68 10 2 10 C2 10.66 2 11.32 2 12 C1.34 12 0.68 12 0 12 C-0.76173392 7.6835078 -1.16063604 4.25566547 0 0 Z " fill="#1E4B17" transform="translate(83,267)"/>
<path d="M0 0 C0.66 0 1.32 0 2 0 C2.22331199 1.58129029 2.42804644 3.16521089 2.625 4.75 C2.74101562 5.63171875 2.85703125 6.5134375 2.9765625 7.421875 C3.00207817 10.22859878 2.44843844 11.63384866 1 14 C0.01 14 -0.98 14 -2 14 C-2.33 12.68 -2.66 11.36 -3 10 C-2.01 9.67 -1.02 9.34 0 9 C0 8.34 0 7.68 0 7 C-1.32 6.67 -2.64 6.34 -4 6 C-4 5.34 -4 4.68 -4 4 C-3.34 4 -2.68 4 -2 4 C-2 3.34 -2 2.68 -2 2 C-1.34 2 -0.68 2 0 2 C0 1.34 0 0.68 0 0 Z " fill="#1B4315" transform="translate(126,265)"/>
<path d="M0 0 C4.29 0 8.58 0 13 0 C13 4.29 13 8.58 13 13 C12.67 13 12.34 13 12 13 C12 9.37 12 5.74 12 2 C10.68 2 9.36 2 8 2 C8 5.3 8 8.6 8 12 C7.34 12 6.68 12 6 12 C6 8.7 6 5.4 6 2 C4.02 2 2.04 2 0 2 C0 1.34 0 0.68 0 0 Z " fill="#62E94D" transform="translate(477,280)"/>
<path d="M0 0 C0.33 0 0.66 0 1 0 C1 3.96 1 7.92 1 12 C4.3 12 7.6 12 11 12 C11 8.7 11 5.4 11 2 C9.68 2 8.36 2 7 2 C7 1.34 7 0.68 7 0 C8.98 0 10.96 0 13 0 C13 4.29 13 8.58 13 13 C8.71 13 4.42 13 0 13 C0 8.71 0 4.42 0 0 Z " fill="#6CFD55" transform="translate(28,235)"/>
<path d="M0 0 C2.31 0 4.62 0 7 0 C7 0.99 7 1.98 7 3 C11.62 3 16.24 3 21 3 C21 3.66 21 4.32 21 5 C14.73 5 8.46 5 2 5 C2 4.01 2 3.02 2 2 C1.34 2 0.68 2 0 2 C0 1.34 0 0.68 0 0 Z " fill="#163811" transform="translate(313,215)"/>
<path d="M0 0 C1.32 0.33 2.64 0.66 4 1 C4 4.3 4 7.6 4 11 C6.97 11 9.94 11 13 11 C13 11.33 13 11.66 13 12 C8.71 12 4.42 12 0 12 C0 8.04 0 4.08 0 0 Z " fill="#6BFA53" transform="translate(321,206)"/>
<path d="M0 0 C0.33 0 0.66 0 1 0 C1 3.96 1 7.92 1 12 C4.3 12 7.6 12 11 12 C11 8.7 11 5.4 11 2 C9.68 1.67 8.36 1.34 7 1 C8.98 0.67 10.96 0.34 13 0 C13 4.29 13 8.58 13 13 C8.71 13 4.42 13 0 13 C0 8.71 0 4.42 0 0 Z " fill="#6DFC55" transform="translate(171,235)"/>
<path d="M0 0 C1.65 0 3.3 0 5 0 C5 3.3 5 6.6 5 10 C3.35 10 1.7 10 0 10 C0 6.7 0 3.4 0 0 Z " fill="#63F54D" transform="translate(29,312)"/>
<path d="M0 0 C1.65 0 3.3 0 5 0 C5 3.3 5 6.6 5 10 C3.35 10 1.7 10 0 10 C0 6.7 0 3.4 0 0 Z " fill="#64F84E" transform="translate(171,222)"/>
<path d="M0 0 C0.33 0.66 0.66 1.32 1 2 C1.66 2 2.32 2 3 2 C3.33 1.34 3.66 0.68 4 0 C4 4.29 4 8.58 4 13 C3.67 12.01 3.34 11.02 3 10 C2.34 10 1.68 10 1 10 C0.67 11.32 0.34 12.64 0 14 C-0.66 14 -1.32 14 -2 14 C-2 13.34 -2 12.68 -2 12 C-2.66 12 -3.32 12 -4 12 C-4 11.34 -4 10.68 -4 10 C-3.360625 9.87625 -2.72125 9.7525 -2.0625 9.625 C-1.381875 9.41875 -0.70125 9.2125 0 9 C0.33 8.34 0.66 7.68 1 7 C1 7.66 1 8.32 1 9 C1.66 9 2.32 9 3 9 C2.67 8.01 2.34 7.02 2 6 C2.33 5.01 2.66 4.02 3 3 C2.34 3 1.68 3 1 3 C0.67 3.66 0.34 4.32 0 5 C-1.32 5 -2.64 5 -4 5 C-4 4.34 -4 3.68 -4 3 C-2.68 2.67 -1.36 2.34 0 2 C0 1.34 0 0.68 0 0 Z " fill="#2A6921" transform="translate(242,205)"/>
<path d="M0 0 C0.33 0.66 0.66 1.32 1 2 C1.66 2 2.32 2 3 2 C3.33 1.34 3.66 0.68 4 0 C4 4.29 4 8.58 4 13 C3.67 12.01 3.34 11.02 3 10 C2.34 10 1.68 10 1 10 C0.67 11.32 0.34 12.64 0 14 C-0.66 14 -1.32 14 -2 14 C-2 13.34 -2 12.68 -2 12 C-2.66 12 -3.32 12 -4 12 C-4 11.34 -4 10.68 -4 10 C-3.360625 9.87625 -2.72125 9.7525 -2.0625 9.625 C-1.381875 9.41875 -0.70125 9.2125 0 9 C0.33 8.34 0.66 7.68 1 7 C1 7.66 1 8.32 1 9 C1.66 9 2.32 9 3 9 C2.67 8.01 2.34 7.02 2 6 C2.33 5.01 2.66 4.02 3 3 C2.34 3 1.68 3 1 3 C0.67 3.66 0.34 4.32 0 5 C-1.32 5 -2.64 5 -4 5 C-4 4.34 -4 3.68 -4 3 C-2.68 2.67 -1.36 2.34 0 2 C0 1.34 0 0.68 0 0 Z " fill="#2A6921" transform="translate(276,190)"/>
<path d="M0 0 C1.65 0 3.3 0 5 0 C5 3.3 5 6.6 5 10 C3.35 10 1.7 10 0 10 C0 6.7 0 3.4 0 0 Z " fill="#63F54D" transform="translate(29,192)"/>
<path d="M0 0 C1.65 0 3.3 0 5 0 C5 0.66 5 1.32 5 2 C5.66 2 6.32 2 7 2 C7 4.31 7 6.62 7 9 C5.68 9.33 4.36 9.66 3 10 C3.33 9.34 3.66 8.68 4 8 C3.01 7.67 2.02 7.34 1 7 C0.67 4.69 0.34 2.38 0 0 Z " fill="#1A4014" transform="translate(361,235)"/>
<path d="M0 0 C0.66 0 1.32 0 2 0 C2.33 2.97 2.66 5.94 3 9 C-0.13349732 10.04449911 -0.98968256 9.93423645 -4 9 C-4 8.34 -4 7.68 -4 7 C-3.34 7 -2.68 7 -2 7 C-2 6.34 -2 5.68 -2 5 C-2.66 5 -3.32 5 -4 5 C-4 4.34 -4 3.68 -4 3 C-2.68 2.67 -1.36 2.34 0 2 C0 1.34 0 0.68 0 0 Z " fill="#132F0E" transform="translate(24,295)"/>
<path d="M0 0 C1.65 0 3.3 0 5 0 C5 0.66 5 1.32 5 2 C5.66 2 6.32 2 7 2 C7 4.31 7 6.62 7 9 C6.34 9 5.68 9 5 9 C5 8.34 5 7.68 5 7 C3.68 7.33 2.36 7.66 1 8 C0.67 5.36 0.34 2.72 0 0 Z " fill="#1A4014" transform="translate(470,220)"/>
<path d="M0 0 C4.29 0 8.58 0 13 0 C12.67 0.66 12.34 1.32 12 2 C10.68 2 9.36 2 8 2 C8 5.3 8 8.6 8 12 C7.34 12 6.68 12 6 12 C6 8.7 6 5.4 6 2 C4.35 2.33 2.7 2.66 1 3 C0.67 2.01 0.34 1.02 0 0 Z " fill="#61EF4C" transform="translate(477,220)"/>
<path d="M0 0 C2.31 0 4.62 0 7 0 C7 2.97 7 5.94 7 9 C6.34 9 5.68 9 5 9 C5 8.34 5 7.68 5 7 C3.68 7 2.36 7 1 7 C0.67 4.69 0.34 2.38 0 0 Z " fill="#1C4515" transform="translate(191,205)"/>
<path d="M0 0 C4.29 0 8.58 0 13 0 C12.67 0.66 12.34 1.32 12 2 C10.68 2 9.36 2 8 2 C8 5.3 8 8.6 8 12 C7.34 12 6.68 12 6 12 C6 8.7 6 5.4 6 2 C4.35 2.33 2.7 2.66 1 3 C0.67 2.01 0.34 1.02 0 0 Z " fill="#61EC4B" transform="translate(477,205)"/>
<path d="M0 0 C0.78375 0.185625 1.5675 0.37125 2.375 0.5625 C4.97089775 1.25962266 4.97089775 1.25962266 7 0 C7 1.98 7 3.96 7 6 C6.01 6.495 6.01 6.495 5 7 C4.34786708 9.02463255 4.34786708 9.02463255 4 11 C3.34 11 2.68 11 2 11 C0.875 4.25 0.875 4.25 2 2 C1.34 2 0.68 2 0 2 C0 1.34 0 0.68 0 0 Z " fill="#1A4215" transform="translate(122,238)"/>
<path d="M0 0 C0.33 0 0.66 0 1 0 C1 4.62 1 9.24 1 14 C2.98 14 4.96 14 7 14 C7 14.33 7 14.66 7 15 C2.38 15 -2.24 15 -7 15 C-7 15.66 -7 16.32 -7 17 C-9.31 17 -11.62 17 -14 17 C-14 16.34 -14 15.68 -14 15 C-11.23547967 13.61773984 -8.9538637 13.90474613 -5.875 13.9375 C-2.966875 13.9684375 -2.966875 13.9684375 0 14 C0 9.38 0 4.76 0 0 Z " fill="#0C1E09" transform="translate(252,190)"/>
<path d="M0 0 C1.5 1.125 1.5 1.125 3 3 C3.1875 6.1875 3.1875 6.1875 3 9 C0.69 9 -1.62 9 -4 9 C-4 7.35 -4 5.7 -4 4 C-3.34 4 -2.68 4 -2 4 C-2 3.34 -2 2.68 -2 2 C-1.34 2 -0.68 2 0 2 C0 1.34 0 0.68 0 0 Z " fill="#183D13" transform="translate(276,265)"/>
<path d="M0 0 C0.33 0.99 0.66 1.98 1 3 C1.66 3 2.32 3 3 3 C3 4.98 3 6.96 3 9 C0.69 9 -1.62 9 -4 9 C-4 7.35 -4 5.7 -4 4 C-3.34 4 -2.68 4 -2 4 C-2 3.34 -2 2.68 -2 2 C-1.34 2 -0.68 2 0 2 C0 1.34 0 0.68 0 0 Z " fill="#1A4114" transform="translate(167,280)"/>
<path d="M0 0 C1.65 0 3.3 0 5 0 C5 0.99 5 1.98 5 3 C5.66 3 6.32 3 7 3 C7 4.98 7 6.96 7 9 C5.35 8.67 3.7 8.34 2 8 C2 7.01 2 6.02 2 5 C1.34 5 0.68 5 0 5 C0 3.35 0 1.7 0 0 Z " fill="#1A4014" transform="translate(313,235)"/>
<path d="M0 0 C2.31 0 4.62 0 7 0 C7 2.31 7 4.62 7 7 C5.02 7 3.04 7 1 7 C0.67 4.69 0.34 2.38 0 0 Z " fill="#1D4716" transform="translate(191,220)"/>
<path d="M0 0 C0.33 0.66 0.66 1.32 1 2 C1.66 2 2.32 2 3 2 C3.33 1.34 3.66 0.68 4 0 C4 4.29 4 8.58 4 13 C8.29 13 12.58 13 17 13 C17 13.33 17 13.66 17 14 C11.72 14 6.44 14 1 14 C1 13.34 1 12.68 1 12 C1.66 12 2.32 12 3 12 C2.67 11.01 2.34 10.02 2 9 C2.27571139 6.99124558 2.60235737 4.98821313 3 3 C2.34 3 1.68 3 1 3 C0.67 3.66 0.34 4.32 0 5 C0 4.34 0 3.68 0 3 C-0.66 2.67 -1.32 2.34 -2 2 C-1.34 2 -0.68 2 0 2 C0 1.34 0 0.68 0 0 Z " fill="#2D6F23" transform="translate(167,235)"/>
<path d="M0 0 C0.66 0 1.32 0 2 0 C2 0.66 2 1.32 2 2 C2.66 2 3.32 2 4 2 C4 2.66 4 3.32 4 4 C4.66 4 5.32 4 6 4 C5.67 5.65 5.34 7.3 5 9 C4.67 8.34 4.34 7.68 4 7 C3.34 7 2.68 7 2 7 C2 7.66 2 8.32 2 9 C1.34 9 0.68 9 0 9 C-1.125 2.25 -1.125 2.25 0 0 Z " fill="#1E4C18" transform="translate(369,225)"/>
<path d="M0 0 C0.33 0 0.66 0 1 0 C1 4.62 1 9.24 1 14 C-0.98 14 -2.96 14 -5 14 C-5 13.34 -5 12.68 -5 12 C-5.66 12 -6.32 12 -7 12 C-7 11.34 -7 10.68 -7 10 C-5.02 9.67 -3.04 9.34 -1 9 C-1.020625 7.88625 -1.04125 6.7725 -1.0625 5.625 C-1 2 -1 2 0 0 Z " fill="#255D1D" transform="translate(27,190)"/>
<path d="M0 0 C1.32 0 2.64 0 4 0 C4 3.3 4 6.6 4 10 C2.68 10 1.36 10 0 10 C0 6.7 0 3.4 0 0 Z " fill="#64F74E" transform="translate(97,282)"/>
<path d="M0 0 C1.32 0 2.64 0 4 0 C4 3.3 4 6.6 4 10 C2.68 10 1.36 10 0 10 C0 6.7 0 3.4 0 0 Z " fill="#64F84E" transform="translate(35,252)"/>
<path d="M0 0 C1.32 0 2.64 0 4 0 C4 3.3 4 6.6 4 10 C2.68 10 1.36 10 0 10 C0 6.7 0 3.4 0 0 Z " fill="#64F84E" transform="translate(281,192)"/>
<path d="M0 0 C2.31 0 4.62 0 7 0 C7.33 2.31 7.66 4.62 8 7 C6.02 7 4.04 7 2 7 C2 6.34 2 5.68 2 5 C1.34 5 0.68 5 0 5 C0 3.35 0 1.7 0 0 Z " fill="#193F14" transform="translate(20,317)"/>
<path d="M0 0 C0.66 0 1.32 0 2 0 C2.625 3.375 2.625 3.375 3 7 C2.34 7.66 1.68 8.32 1 9 C0.01 9 -0.98 9 -2 9 C-2.33 6.69 -2.66 4.38 -3 2 C-2.01 2 -1.02 2 0 2 C0 1.34 0 0.68 0 0 Z " fill="#183C13" transform="translate(126,285)"/>
<path d="M0 0 C0.99 0 1.98 0 3 0 C3 3.3 3 6.6 3 10 C2.01 10 1.02 10 0 10 C-0.33 9.34 -0.66 8.68 -1 8 C-1.99 7.67 -2.98 7.34 -4 7 C-3.34 7 -2.68 7 -2 7 C-1.855625 6.401875 -1.71125 5.80375 -1.5625 5.1875 C-1.1127561 3.43849596 -0.57107659 1.71322977 0 0 Z " fill="#60EE4B" transform="translate(370,237)"/>
<path d="M0 0 C0.33 0 0.66 0 1 0 C1 4.29 1 8.58 1 13 C0.34 12.34 -0.32 11.68 -1 11 C-1.99 12.485 -1.99 12.485 -3 14 C-3.66 14 -4.32 14 -5 14 C-5 13.34 -5 12.68 -5 12 C-5.66 12 -6.32 12 -7 12 C-7 11.34 -7 10.68 -7 10 C-6.360625 9.87625 -5.72125 9.7525 -5.0625 9.625 C-4.381875 9.41875 -3.70125 9.2125 -3 9 C-2.67 8.34 -2.34 7.68 -2 7 C-2 7.66 -2 8.32 -2 9 C-1.34 9 -0.68 9 0 9 C-0.185625 7.88625 -0.37125 6.7725 -0.5625 5.625 C-1 2 -1 2 0 0 Z " fill="#28631F" transform="translate(27,205)"/>
<path d="M0 0 C0.66 0 1.32 0 2 0 C2 0.66 2 1.32 2 2 C2.66 2 3.32 2 4 2 C4.33 1.34 4.66 0.68 5 0 C5 4.29 5 8.58 5 13 C4.67 12.01 4.34 11.02 4 10 C3.34 9.67 2.68 9.34 2 9 C2.66 9 3.32 9 4 9 C4 8.34 4 7.68 4 7 C3.34 6.67 2.68 6.34 2 6 C2.66 6 3.32 6 4 6 C4 5.34 4 4.68 4 4 C2.02463255 4.34786708 2.02463255 4.34786708 0 5 C-0.33 5.66 -0.66 6.32 -1 7 C-1 6.34 -1 5.68 -1 5 C-1.66 4.67 -2.32 4.34 -3 4 C-2.34 4 -1.68 4 -1 4 C-0.67 2.68 -0.34 1.36 0 0 Z " fill="#2E7324" transform="translate(459,190)"/>
<path d="M0 0 C0.33 0 0.66 0 1 0 C1 4.29 1 8.58 1 13 C0.67 12.01 0.34 11.02 0 10 C-0.66 10 -1.32 10 -2 10 C-2.33 11.32 -2.66 12.64 -3 14 C-3.66 14 -4.32 14 -5 14 C-5 13.34 -5 12.68 -5 12 C-5.66 12 -6.32 12 -7 12 C-7 11.34 -7 10.68 -7 10 C-6.360625 9.87625 -5.72125 9.7525 -5.0625 9.625 C-4.381875 9.41875 -3.70125 9.2125 -3 9 C-2.67 8.34 -2.34 7.68 -2 7 C-2 7.66 -2 8.32 -2 9 C-1.34 9 -0.68 9 0 9 C0 7.02 0 5.04 0 3 C-0.66 2.67 -1.32 2.34 -2 2 C-1.34 2 -0.68 2 0 2 C0 1.34 0 0.68 0 0 Z " fill="#2F7424" transform="translate(463,310)"/>
<path d="M0 0 C0.96912042 3.27078142 1 5.39035432 1 9 C7.93 9.495 7.93 9.495 15 10 C15 10.33 15 10.66 15 11 C9.72 11 4.44 11 -1 11 C-2.125 3.125 -2.125 3.125 0 0 Z " fill="#1C4616" transform="translate(26,238)"/>
<path d="M0 0 C0 0.66 0 1.32 0 2 C0.66 2 1.32 2 2 2 C2 3.65 2 5.3 2 7 C1.34 7 0.68 7 0 7 C0 6.34 0 5.68 0 5 C-0.66 5 -1.32 5 -2 5 C-2 5.66 -2 6.32 -2 7 C-2.66 7 -3.32 7 -4 7 C-4.33 5.02 -4.66 3.04 -5 1 C-2 0 -2 0 0 0 Z " fill="#1C4616" transform="translate(298,227)"/>
<path d="M0 0 C0.66 0 1.32 0 2 0 C2.33 0.99 2.66 1.98 3 3 C6.96 3.33 10.92 3.66 15 4 C15 4.33 15 4.66 15 5 C10.71 5 6.42 5 2 5 C2 5.66 2 6.32 2 7 C0.68 7 -0.64 7 -2 7 C-1.125 2.25 -1.125 2.25 0 0 Z " fill="#071105" transform="translate(277,275)"/>
<path d="M0 0 C0.66 0 1.32 0 2 0 C2.33 0.99 2.66 1.98 3 3 C6.96 3.33 10.92 3.66 15 4 C15 4.33 15 4.66 15 5 C10.71 5 6.42 5 2 5 C2 5.66 2 6.32 2 7 C0.68 7 -0.64 7 -2 7 C-1.125 2.25 -1.125 2.25 0 0 Z " fill="#061005" transform="translate(168,275)"/>
<path d="M0 0 C0.33 0 0.66 0 1 0 C1 4.29 1 8.58 1 13 C0.67 12.01 0.34 11.02 0 10 C-0.66 10 -1.32 10 -2 10 C-2.33 11.32 -2.66 12.64 -3 14 C-3.66 14 -4.32 14 -5 14 C-5 13.34 -5 12.68 -5 12 C-5.66 12 -6.32 12 -7 12 C-7 11.34 -7 10.68 -7 10 C-3.535 9.505 -3.535 9.505 0 9 C-0.185625 7.88625 -0.37125 6.7725 -0.5625 5.625 C-1 2 -1 2 0 0 Z " fill="#26601E" transform="translate(170,265)"/>
<path d="M0 0 C0.66 0 1.32 0 2 0 C2.185625 0.9590625 2.185625 0.9590625 2.375 1.9375 C2.684375 2.9584375 2.684375 2.9584375 3 4 C3.66 4.33 4.32 4.66 5 5 C4.34 5 3.68 5 3 5 C3 5.66 3 6.32 3 7 C3.66 7 4.32 7 5 7 C5 7.66 5 8.32 5 9 C4.34 9 3.68 9 3 9 C3 9.66 3 10.32 3 11 C2.01 11.33 1.02 11.66 0 12 C0 8.04 0 4.08 0 0 Z " fill="#23571B" transform="translate(470,250)"/>
<path d="M0 0 C2.31 0 4.62 0 7 0 C7 1.98 7 3.96 7 6 C4.69 6 2.38 6 0 6 C0 5.34 0 4.68 0 4 C0.66 4 1.32 4 2 4 C2 3.34 2 2.68 2 2 C1.34 2 0.68 2 0 2 C0 1.34 0 0.68 0 0 Z " fill="#163811" transform="translate(272,223)"/>
<path d="M0 0 C2.31 0 4.62 0 7 0 C7 1.98 7 3.96 7 6 C4.69 6 2.38 6 0 6 C0 5.34 0 4.68 0 4 C0.66 4 1.32 4 2 4 C2 3.34 2 2.68 2 2 C1.34 2 0.68 2 0 2 C0 1.34 0 0.68 0 0 Z " fill="#153510" transform="translate(238,223)"/>
<path d="M0 0 C1.32 0 2.64 0 4 0 C4 2.31 4 4.62 4 7 C3.34 6.67 2.68 6.34 2 6 C-0.09821215 6.39938767 -0.09821215 6.39938767 -2 7 C-2.33 6.01 -2.66 5.02 -3 4 C-2.67 3.34 -2.34 2.68 -2 2 C-1.34 2 -0.68 2 0 2 C0 1.34 0 0.68 0 0 Z " fill="#1F4E18" transform="translate(194,250)"/>
<path d="M0 0 C1.65 0 3.3 0 5 0 C5 0.66 5 1.32 5 2 C5.66 2 6.32 2 7 2 C7 2.99 7 3.98 7 5 C6.34 5 5.68 5 5 5 C5 5.66 5 6.32 5 7 C4.34 7 3.68 7 3 7 C3 6.34 3 5.68 3 5 C2.01 5 1.02 5 0 5 C0 3.35 0 1.7 0 0 Z " fill="#1A4014" transform="translate(470,235)"/>
<path d="M0 0 C0.33 0.66 0.66 1.32 1 2 C1.66 2 2.32 2 3 2 C3.33 1.34 3.66 0.68 4 0 C4 4.29 4 8.58 4 13 C1.82233925 8.64467851 1.96960445 7.53374042 3 3 C2.34 3 1.68 3 1 3 C0.67 3.66 0.34 4.32 0 5 C-1.32 5 -2.64 5 -4 5 C-4 4.34 -4 3.68 -4 3 C-2.68 2.67 -1.36 2.34 0 2 C0 1.34 0 0.68 0 0 Z " fill="#2F7324" transform="translate(276,235)"/>
<path d="M0 0 C0.99 0 1.98 0 3 0 C3 3.3 3 6.6 3 10 C2.01 10 1.02 10 0 10 C0 6.7 0 3.4 0 0 Z " fill="#64F74E" transform="translate(329,252)"/>
<path d="M0 0 C0.99 0 1.98 0 3 0 C3 3.3 3 6.6 3 10 C2.01 10 1.02 10 0 10 C0 6.7 0 3.4 0 0 Z " fill="#64F74E" transform="translate(322,252)"/>
<path d="M0 0 C1.65 0 3.3 0 5 0 C6.125 4.75 6.125 4.75 5 7 C4.34 7 3.68 7 3 7 C3 6.34 3 5.68 3 5 C1.68 5 0.36 5 -1 5 C-0.67 3.35 -0.34 1.7 0 0 Z " fill="#183D13" transform="translate(82,235)"/>
<path d="M0 0 C0.99 0 1.98 0 3 0 C3 3.3 3 6.6 3 10 C2.01 10 1.02 10 0 10 C0 6.7 0 3.4 0 0 Z " fill="#64F74E" transform="translate(91,237)"/>
<path d="M0 0 C1.485 0.99 1.485 0.99 3 2 C3.1875 5.125 3.1875 5.125 3 8 C1.68 8.33 0.36 8.66 -1 9 C-1.09765625 2.84765625 -1.09765625 2.84765625 -1 1 C-0.67 0.67 -0.34 0.34 0 0 Z " fill="#112C0E" transform="translate(86,263)"/>
<path d="M0 0 C0.66 0 1.32 0 2 0 C2.33 1.98 2.66 3.96 3 6 C0.69 6 -1.62 6 -4 6 C-4 5.34 -4 4.68 -4 4 C-3.34 4 -2.68 4 -2 4 C-2 3.34 -2 2.68 -2 2 C-1.34 2 -0.68 2 0 2 C0 1.34 0 0.68 0 0 Z " fill="#1A4114" transform="translate(24,250)"/>
<path d="M0 0 C0.33 0.66 0.66 1.32 1 2 C1.66 2 2.32 2 3 2 C3.33 1.34 3.66 0.68 4 0 C4 4.29 4 8.58 4 13 C3.34 12.67 2.68 12.34 2 12 C2 9.36 2 6.72 2 4 C1.01 4.495 1.01 4.495 0 5 C0 4.34 0 3.68 0 3 C-0.66 2.67 -1.32 2.34 -2 2 C-1.34 2 -0.68 2 0 2 C0 1.34 0 0.68 0 0 Z " fill="#2D7124" transform="translate(24,235)"/>
<path d="M0 0 C0 1.98 0 3.96 0 6 C-2.31 6 -4.62 6 -7 6 C-7 5.34 -7 4.68 -7 4 C-6.34 4 -5.68 4 -5 4 C-5 3.01 -5 2.02 -5 1 C-2 0 -2 0 0 0 Z " fill="#122E0E" transform="translate(245,208)"/>
<path d="M0 0 C0 1.98 0 3.96 0 6 C-2.31 6 -4.62 6 -7 6 C-7 5.34 -7 4.68 -7 4 C-6.34 4 -5.68 4 -5 4 C-5 3.01 -5 2.02 -5 1 C-2 0 -2 0 0 0 Z " fill="#122E0E" transform="translate(279,193)"/>
<path d="M0 0 C0.99 0 1.98 0 3 0 C3 0.66 3 1.32 3 2 C3.99 2.33 4.98 2.66 6 3 C6 3.66 6 4.32 6 5 C5.01 5 4.02 5 3 5 C3 5.66 3 6.32 3 7 C2.34 7 1.68 7 1 7 C0.67 4.69 0.34 2.38 0 0 Z " fill="#1A4215" transform="translate(82,227)"/>
<path d="M0 0 C0.33 0.66 0.66 1.32 1 2 C1.66 2 2.32 2 3 2 C3.33 1.34 3.66 0.68 4 0 C4 4.29 4 8.58 4 13 C1.82233925 8.64467851 1.96960445 7.53374042 3 3 C2.34 3 1.68 3 1 3 C0.67 3.66 0.34 4.32 0 5 C0 4.34 0 3.68 0 3 C-0.66 2.67 -1.32 2.34 -2 2 C-1.34 2 -0.68 2 0 2 C0 1.34 0 0.68 0 0 Z " fill="#327C27" transform="translate(276,220)"/>
<path d="M0 0 C0.33 0.66 0.66 1.32 1 2 C1.66 2 2.32 2 3 2 C3.33 1.34 3.66 0.68 4 0 C4 4.29 4 8.58 4 13 C3.01 12.67 2.02 12.34 1 12 C1.66 12 2.32 12 3 12 C2.67 11.01 2.34 10.02 2 9 C2.27571139 6.99124558 2.60235737 4.98821313 3 3 C2.34 3 1.68 3 1 3 C0.67 3.66 0.34 4.32 0 5 C0 4.34 0 3.68 0 3 C-0.66 2.67 -1.32 2.34 -2 2 C-1.34 2 -0.68 2 0 2 C0 1.34 0 0.68 0 0 Z " fill="#337E27" transform="translate(242,220)"/>
<path d="M0 0 C0.33 0 0.66 0 1 0 C1 4.29 1 8.58 1 13 C0.67 12.01 0.34 11.02 0 10 C-0.66 10 -1.32 10 -2 10 C-2.33 10.66 -2.66 11.32 -3 12 C-3 11.34 -3 10.68 -3 10 C-3.66 9.67 -4.32 9.34 -5 9 C-4.01 8.34 -3.02 7.68 -2 7 C-2 7.66 -2 8.32 -2 9 C-1.34 9 -0.68 9 0 9 C0 7.02 0 5.04 0 3 C-0.66 2.67 -1.32 2.34 -2 2 C-1.34 2 -0.68 2 0 2 C0 1.34 0 0.68 0 0 Z " fill="#37872A" transform="translate(320,205)"/>
<path d="M0 0 C0.66 0 1.32 0 2 0 C2 0.66 2 1.32 2 2 C2.66 2 3.32 2 4 2 C4 1.34 4 0.68 4 0 C4.66 0 5.32 0 6 0 C6 1.65 6 3.3 6 5 C5.34 5 4.68 5 4 5 C4 4.34 4 3.68 4 3 C3.34 3 2.68 3 2 3 C2 3.66 2 4.32 2 5 C1.34 5 0.68 5 0 5 C-0.5625 3.0625 -0.5625 3.0625 -1 1 C-0.67 0.67 -0.34 0.34 0 0 Z " fill="#22551A" transform="translate(369,259)"/>
<path d="M0 0 C1.32 0 2.64 0 4 0 C4.33 1.98 4.66 3.96 5 6 C4.01 6.33 3.02 6.66 2 7 C1.34 6.67 0.68 6.34 0 6 C0 5.34 0 4.68 0 4 C0.66 4 1.32 4 2 4 C2 3.34 2 2.68 2 2 C1.34 2 0.68 2 0 2 C0 1.34 0 0.68 0 0 Z " fill="#1D4916" transform="translate(20,257)"/>
<path d="M0 0 C1.65 0 3.3 0 5 0 C5.33 1.65 5.66 3.3 6 5 C3.69 5 1.38 5 -1 5 C-0.67 3.35 -0.34 1.7 0 0 Z " fill="#1A4114" transform="translate(191,235)"/>
<path d="M0 0 C1.65 0.33 3.3 0.66 5 1 C5.33 2.32 5.66 3.64 6 5 C5.01 5 4.02 5 3 5 C3 4.34 3 3.68 3 3 C2.34 3 1.68 3 1 3 C0.67 3.66 0.34 4.32 0 5 C0 4.34 0 3.68 0 3 C-0.66 2.67 -1.32 2.34 -2 2 C-1.34 2 -0.68 2 0 2 C0 1.34 0 0.68 0 0 Z " fill="#1F4D18" transform="translate(322,289)"/>
<path d="M0 0 C0.66 0 1.32 0 2 0 C2 0.66 2 1.32 2 2 C2.66 2 3.32 2 4 2 C4 2.66 4 3.32 4 4 C1.5 5.625 1.5 5.625 -1 7 C-1 6.34 -1 5.68 -1 5 C-1.66 4.67 -2.32 4.34 -3 4 C-2.34 4 -1.68 4 -1 4 C-0.67 2.68 -0.34 1.36 0 0 Z " fill="#23561B" transform="translate(248,250)"/>
<path d="M0 0 C1.65 0 3.3 0 5 0 C4.67 2.31 4.34 4.62 4 7 C3.34 7 2.68 7 2 7 C2 6.34 2 5.68 2 5 C1.34 5 0.68 5 0 5 C0 3.35 0 1.7 0 0 Z " fill="#22541A" transform="translate(163,242)"/>
<path d="M0 0 C0.66 0 1.32 0 2 0 C2 0.66 2 1.32 2 2 C2.66 2 3.32 2 4 2 C4 2.66 4 3.32 4 4 C3.360625 4.12375 2.72125 4.2475 2.0625 4.375 C1.0415625 4.684375 1.0415625 4.684375 0 5 C-0.33 5.66 -0.66 6.32 -1 7 C-1 6.34 -1 5.68 -1 5 C-1.66 4.67 -2.32 4.34 -3 4 C-2.34 4 -1.68 4 -1 4 C-0.67 2.68 -0.34 1.36 0 0 Z " fill="#24591C" transform="translate(323,280)"/>
<path d="M0 0 C1.65 0.33 3.3 0.66 5 1 C5.33 2.32 5.66 3.64 6 5 C5.38125 4.814375 4.7625 4.62875 4.125 4.4375 C1.95839822 3.76313824 1.95839822 3.76313824 0 5 C0 4.34 0 3.68 0 3 C-0.66 2.67 -1.32 2.34 -2 2 C-1.34 2 -0.68 2 0 2 C0 1.34 0 0.68 0 0 Z " fill="#205019" transform="translate(247,274)"/>
<path d="M0 0 C0.66 0 1.32 0 2 0 C3.38232443 1.62626404 4.71937515 3.2925002 6 5 C0.25 5.125 0.25 5.125 -2 4 C-2 3.34 -2 2.68 -2 2 C-1.34 2 -0.68 2 0 2 C0 1.34 0 0.68 0 0 Z " fill="#215119" transform="translate(165,259)"/>
<path d="M0 0 C0.66 0 1.32 0 2 0 C2 0.66 2 1.32 2 2 C2.66 2 3.32 2 4 2 C4 3.32 4 4.64 4 6 C2.68 6.33 1.36 6.66 0 7 C0 4.69 0 2.38 0 0 Z " fill="#153410" transform="translate(473,280)"/>
<path d="M0 0 C1.32 0 2.64 0 4 0 C4 1.32 4 2.64 4 4 C1.69 4.33 -0.62 4.66 -3 5 C-2.67 4.01 -2.34 3.02 -2 2 C-1.34 2 -0.68 2 0 2 C0 1.34 0 0.68 0 0 Z " fill="#1F4E18" transform="translate(194,280)"/>
<path d="M0 0 C0.66 0 1.32 0 2 0 C2 0.66 2 1.32 2 2 C2.66 2 3.32 2 4 2 C4 3.32 4 4.64 4 6 C2.68 6.33 1.36 6.66 0 7 C0 4.69 0 2.38 0 0 Z " fill="#153310" transform="translate(473,265)"/>
<path d="M0 0 C1.65 0.33 3.3 0.66 5 1 C5 1.99 5 2.98 5 4 C3.35 4.33 1.7 4.66 0 5 C0 4.34 0 3.68 0 3 C-0.66 2.67 -1.32 2.34 -2 2 C-1.34 2 -0.68 2 0 2 C0 1.34 0 0.68 0 0 Z " fill="#1D4816" transform="translate(247,259)"/>
<path d="M0 0 C1.65 0 3.3 0 5 0 C5 0.66 5 1.32 5 2 C4.34 2 3.68 2 3 2 C3 3.65 3 5.3 3 7 C2.34 7 1.68 7 1 7 C0.67 4.69 0.34 2.38 0 0 Z " fill="#23571B" transform="translate(470,212)"/>
<path d="M0 0 C0.33 0 0.66 0 1 0 C0.67 2.31 0.34 4.62 0 7 C-0.66 7 -1.32 7 -2 7 C-2 6.34 -2 5.68 -2 5 C-2.66 5 -3.32 5 -4 5 C-4 4.34 -4 3.68 -4 3 C-2.68 2.67 -1.36 2.34 0 2 C0 1.34 0 0.68 0 0 Z " fill="#23571B" transform="translate(24,295)"/>
<path d="M0 0 C0.33 0 0.66 0 1 0 C0.67 2.31 0.34 4.62 0 7 C-0.66 7 -1.32 7 -2 7 C-2 6.34 -2 5.68 -2 5 C-2.66 5 -3.32 5 -4 5 C-4 4.34 -4 3.68 -4 3 C-2.68 2.67 -1.36 2.34 0 2 C0 1.34 0 0.68 0 0 Z " fill="#23581B" transform="translate(24,272)"/>
<path d="M0 0 C0.66 0 1.32 0 2 0 C3.625 2 3.625 2 5 4 C0.25 5.125 0.25 5.125 -2 4 C-2 3.34 -2 2.68 -2 2 C-1.34 2 -0.68 2 0 2 C0 1.34 0 0.68 0 0 Z " fill="#205019" transform="translate(274,259)"/>
<path d="M0 0 C0.33 0 0.66 0 1 0 C0.67 2.31 0.34 4.62 0 7 C-0.66 7 -1.32 7 -2 7 C-2 6.34 -2 5.68 -2 5 C-2.66 5 -3.32 5 -4 5 C-4 4.34 -4 3.68 -4 3 C-2.68 2.67 -1.36 2.34 0 2 C0 1.34 0 0.68 0 0 Z " fill="#23581B" transform="translate(24,190)"/>
<path d="M0 0 C0.66 0 1.32 0 2 0 C2 0.66 2 1.32 2 2 C2.66 2 3.32 2 4 2 C4 2.66 4 3.32 4 4 C1.69 4.33 -0.62 4.66 -3 5 C-2.67 4.01 -2.34 3.02 -2 2 C-1.34 2 -0.68 2 0 2 C0 1.34 0 0.68 0 0 Z " fill="#215119" transform="translate(371,280)"/>
<path d="M0 0 C0 0.66 0 1.32 0 2 C-3.01031744 2.93423645 -3.86650268 3.04449911 -7 2 C-7 1.34 -7 0.68 -7 0 C-3.86650268 -1.04449911 -3.01031744 -0.93423645 0 0 Z " fill="#122E0E" transform="translate(252,272)"/>
<path d="M0 0 C0 2.64 0 5.28 0 8 C-0.66 8 -1.32 8 -2 8 C-2 6.68 -2 5.36 -2 4 C-2.66 3.67 -3.32 3.34 -4 3 C-4 2.34 -4 1.68 -4 1 C-2 0 -2 0 0 0 Z " fill="#22551B" transform="translate(89,271)"/>
<path d="M0 0 C0.66 0 1.32 0 2 0 C2.33 1.65 2.66 3.3 3 5 C0.69 5 -1.62 5 -4 5 C-4 4.34 -4 3.68 -4 3 C-2.68 2.67 -1.36 2.34 0 2 C0 1.34 0 0.68 0 0 Z " fill="#1B4315" transform="translate(412,265)"/>
<path d="M0 0 C0.66 0 1.32 0 2 0 C2.185625 0.9590625 2.185625 0.9590625 2.375 1.9375 C2.684375 2.9584375 2.684375 2.9584375 3 4 C3.66 4.33 4.32 4.66 5 5 C4.34 5 3.68 5 3 5 C3 5.66 3 6.32 3 7 C2.01 6.67 1.02 6.34 0 6 C0 4.02 0 2.04 0 0 Z " fill="#24581B" transform="translate(470,265)"/>
<path d="M0 0 C1.5 1.3125 1.5 1.3125 3 3 C3 3.99 3 4.98 3 6 C2.01 6 1.02 6 0 6 C0 5.34 0 4.68 0 4 C-0.66 4 -1.32 4 -2 4 C-2 3.34 -2 2.68 -2 2 C-1.34 2 -0.68 2 0 2 C0 1.34 0 0.68 0 0 Z " fill="#1D4917" transform="translate(276,280)"/>
<path d="M0 0 C1.5 1.3125 1.5 1.3125 3 3 C3 3.99 3 4.98 3 6 C2.01 6 1.02 6 0 6 C0 5.34 0 4.68 0 4 C-0.66 4 -1.32 4 -2 4 C-2 3.34 -2 2.68 -2 2 C-1.34 2 -0.68 2 0 2 C0 1.34 0 0.68 0 0 Z " fill="#1D4917" transform="translate(276,265)"/>
<path d="M0 0 C1.5 1.3125 1.5 1.3125 3 3 C3 3.99 3 4.98 3 6 C2.01 6 1.02 6 0 6 C0 5.34 0 4.68 0 4 C-0.66 4 -1.32 4 -2 4 C-2 3.34 -2 2.68 -2 2 C-1.34 2 -0.68 2 0 2 C0 1.34 0 0.68 0 0 Z " fill="#1D4917" transform="translate(167,265)"/>
<path d="M0 0 C0 0.99 0 1.98 0 3 C-4.75 4.125 -4.75 4.125 -7 3 C-7 2.34 -7 1.68 -7 1 C-2.25 0 -2.25 0 0 0 Z " fill="#173A12" transform="translate(320,260)"/>
<path d="M0 0 C2 3 2 3 2 5 C1.34 5 0.68 5 0 5 C0 5.66 0 6.32 0 7 C-0.66 7 -1.32 7 -2 7 C-2.125 4.625 -2.125 4.625 -2 2 C-1.34 1.34 -0.68 0.68 0 0 Z " fill="#112B0D" transform="translate(196,254)"/>
</svg>
